<?xml version="1.0" encoding="utf-8"?>
<!-- Generator: Adobe Illustrator 18.1.1, SVG Export Plug-In . SVG Version: 6.00 Build 0)  -->
<svg version="1.1" id="Capa_1" xmlns="http://www.w3.org/2000/svg" xmlns:xlink="http://www.w3.org/1999/xlink" x="0px" y="0px"
	 viewBox="0 100.1 600 399.8" enable-background="new 0 100.1 600 399.8" xml:space="preserve">
<rect y="100.1" fill="none" width="600" height="399.8"/>
<g>
	<path fill="#B4BEB8" d="M499.2,305.6c8-13.3,14.8-27.6,24-40c8.9-12.2,19-24,30.5-34.1c11.9-10.1,23.1-9.5,32.9-1.8
		c8.6,6.8,13.3,22.5,7.7,34.1c-4.2,8.9-10.4,18.1-18.1,24.3c-18.4,14.5-37.4,28.2-57.2,40.6c-23.7,14.5-47.5,28.2-53.4,58.7
		c1.5-4.4,2.7-8.9,4.2-13c1.5-4.4,3.3-8.9,5-13.3c-0.6-0.9-1.5-1.8-2.1-2.7c-24.3,18.1-48.6,36.2-73,54.3c1.8-2.7,3.9-5.3,6.5-9.2
		c-41.2-8.3-73.3-30.3-102.3-59c-32.3,34.4-69.7,59-116,67c0-0.9,0-2.1,0.3-3c-3.6-4.2-6.2-9.5-10.4-12.5
		c-16.6-12.8-33.8-25.2-50.7-37.7c-0.6,0.6-1.5,1.2-2.1,1.8c2.4,7.1,5,13.9,7.4,21.1c-0.3,0.3-0.6,0.3-1.2,0.6
		c-0.6-1.2-1.8-2.4-2.1-3.6c-5-19.3-18.1-31.1-35-40.9c-21.1-12.2-41.5-26.4-61.1-40.9c-9.8-7.4-19-16.6-25.2-27
		c-10.7-17.2-3.6-37.7,13.6-43.6c4.2-1.5,10.4-2.1,13.3,0.3c11,7.4,22.8,14.8,31.1,25.2c12.2,15.4,21.4,33.2,31.4,50.1
		c2.7,4.2,4.7,8.9,6.8,13c0-16.6-2.7-33.8,0.6-49.8c10.1-52.8,58.1-61.7,87.2-50.4c21.9,8.6,31.1,29.4,21.7,47.5
		c-3.9,7.4-9.5,12.2-18.7,9.2c-8.9-3-10.7-10.1-3.9-16.6c1.2-0.9,2.4-1.8,3.6-2.7c14.5-10.4,13.9-13.6-1.2-24
		c-22.8-15.4-71.8,3.9-77.4,30c-5.3,25.2-5,49.5,6.2,72.7c15.7,32.3,50.7,42.7,81.6,24.3c24.3-14.2,40-36.8,52.2-61.7
		c2.1-4.2-1.5-11-5-16.3c-5.6,10.4-11.3,20.8-16.9,31.1c-0.6-0.3-0.9-0.6-1.5-0.6c4.4-11.9,9.2-23.1,13-35
		c1.5-4.7,1.5-10.7,0.3-15.7c-5.6-24.3-8.3-48.3-0.6-72.4c2.1-6.8,5.6-13.6,9.8-19.6c7.4-10.4,16-10.7,20.8,1.2
		c5.9,14.5,10.7,30.3,12.5,46c2.7,24-3.3,47.5-13.3,69.1c-3.3,6.8-2.4,11.3,1.8,16.6c8.9,11,17.2,22.5,27.3,35.6
		c9.5-12.8,17.8-23.7,25.2-35.3c1.5-2.4,0-7.7-1.5-10.7c-15.1-32.3-21.4-65.8-12.2-101.1c2.1-7.7,5.3-15.1,9.8-21.9
		c5.6-8.9,13-9.8,18.1-0.9c6.8,12.2,13.6,25.5,14.8,39.1c1.5,17.8,0,36.8-4.7,54c-3.9,14.5-2.1,26.4,4.2,38.9
		c3.6,7.1,7.7,13.6,9.8,21.9c-6.8-11.3-13.6-22.5-20.5-33.5c-0.6,0-1.5-0.3-2.1-0.3c0,4.2-1.8,9.5,0.3,12.5
		c10.4,15.4,20.5,31.4,32.9,44.8c19,20.2,42.4,30.8,70.3,20.2c28.2-10.7,37.4-35.3,40.6-62.9c0.6-6.2,0.3-12.5,0.3-18.7
		C490,238,457,222,426.8,223.2c-9.2,0.3-18.7,6.8-27.3,12.2c-6.5,3.9-5.9,9.5,1.2,13.3c1.5,0.9,3.6,1.5,4.7,2.7
		c3.3,3.9,6.8,8,8.6,12.8c0.6,1.5-5,7.1-8,7.1c-5.3,0-11.9-1.5-15.4-5c-10.1-10.1-8.9-28.8,1.8-39.7c12.2-13,27.9-17.2,45.1-15.4
		c42.4,4.2,67.9,39.1,62,84.5c-0.3,3.6-0.9,6.8-1.5,10.4C498,305.3,498.6,305.6,499.2,305.6z M155.7,373.3
		c11.3,9.5,20.8,17.8,30.8,25.5c2.4,1.8,6.8,2.4,10.1,1.8c41.2-8.3,72.7-32,100.8-61.7c-10.7-13.6-20.8-26.4-31.1-40
		C241.1,340.3,213.2,376.5,155.7,373.3z M110.6,340c-15.4-35.3-30.8-70-59.9-95.5c-4.4-3.9-10.4-6.8-16.3-8.6
		c-9.2-2.4-17.2,0.9-22.8,8.9c-5.6,7.7-2.7,15.1,2.7,21.1c7.4,8,14.8,16.3,23.4,22.8c22.2,16.6,45.1,32.3,67.6,48.3
		C107.1,338.3,108.8,338.9,110.6,340z M488.2,338c0.9,0.9,1.8,2.1,2.7,3c28.2-21.1,56.1-41.8,83.9-62.9c4.2-3.3,7.7-7.7,11-12.2
		c4.7-6.5,8-13.3,2.7-21.1c-5.6-8.3-13.9-11.9-22.8-8.6c-8,3-16,7.7-21.9,13.6C518.4,274.8,503.9,306.8,488.2,338z M444,373.6
		c-54.6,2.1-82.7-31.1-107.4-69.7c-8.9,11.9-17.2,22.8-25.5,33.8c19.6,26.4,68.8,54.6,101.4,58.1c1.8,0.3,4.4,0,5.9-0.9
		C426.2,388.4,433.9,381.9,444,373.6z M337.5,269.7c6.2-33.8,16.6-67.9-2.7-102.9C322.1,189.1,323.3,242.2,337.5,269.7z
		 M267.5,166.5c-16,20.2-17.2,78.9-3.3,105.3C276.1,237.1,277.9,203.3,267.5,166.5z"/>
	<path fill="#B4BEB8" d="M228.4,495.7c28.2-0.6,54-9.8,79.5-23.4c-57.8-11.9-111.5-43.6-173.5-37.7c6.2-1.2,12.5-4.2,18.7-3.6
		c19.9,2.1,40,4.2,59.3,8.3c31.7,6.8,63.2,14.8,94.6,23.4c12.2,3.3,21.1,0,31.7-5.6c21.9-11.6,44.2-22.5,67.3-30.8
		c18.7-6.5,38.9-7.1,58.4-1.2c9.5,3,18.7,7.1,19.9,19.3c1.2,12.8-6.2,19.6-16.3,24.6c-21.9,10.7-45.7,13.6-69.4,13
		c-22.5-0.6-45.1-4.4-67.6-5.9c-7.7-0.6-16,0-22.8,3C282.6,489.5,256.8,499,228.4,495.7z M335.7,466.1c43.6,8.3,86.3,8.9,128.4-6.8
		c3.3-1.2,6.5-3.3,9.5-5.3c8-5.9,8-9.8-0.6-14.5c-5.9-3.3-12.8-5.9-19.3-6.8C409.3,426.1,371.6,442.4,335.7,466.1z"/>
	<path fill="#B4BEB8" d="M298.4,161.5c-13.9-19.3-15.4-38.3,0.9-56.4C315.9,123.5,312.3,142.5,298.4,161.5z"/>
	<path fill="#B4BEB8" d="M88.1,256.4c-10.1-12.8-11-25.2,0.3-37.7C100.2,231.2,97.3,243.9,88.1,256.4z"/>
	<path fill="#B4BEB8" d="M511.6,256.7c-9.8-13-11-25.5,0-37.4C522.9,232.4,522.9,235.9,511.6,256.7z"/>
	<path fill="#B4BEB8" d="M298.7,302.7c-10.1-13-10.7-25.5,0.3-37.4C311.1,277.2,307.9,289.9,298.7,302.7z"/>
	<path fill="#B4BEB8" d="M211.8,331.7c-13.9,11-28.8,16.6-43.3,15.4C181.2,342.7,196,337.4,211.8,331.7z"/>
	<path fill="#B4BEB8" d="M384.1,331.7c15.4,5.6,30,10.7,42.7,15.4C412.3,348,397.1,342.7,384.1,331.7z"/>
</g>
</svg>
