<?xml version="1.0" encoding="utf-8"?>
<!-- Generator: Adobe Illustrator 18.1.1, SVG Export Plug-In . SVG Version: 6.00 Build 0)  -->
<svg version="1.1" id="Capa_1" xmlns="http://www.w3.org/2000/svg" xmlns:xlink="http://www.w3.org/1999/xlink" x="0px" y="0px"
	 viewBox="0 0 594.7 113.6" enable-background="new 0 0 594.7 113.6" xml:space="preserve">
<rect x="0" y="0" fill="none" width="594.7" height="113.6"/>
<g>
	<g>
		<path fill="#FFFFFF" d="M585.4,5.1c1.2,0,2.2,0.2,3.3,0.6c1,0.4,1.9,1,2.7,1.9c0.8,0.8,1.4,1.7,1.8,2.7c0.4,1,0.6,2.1,0.6,3.2
			c0,1.2-0.2,2.2-0.6,3.3c-0.4,1-1,1.9-1.8,2.7c-0.8,0.8-1.7,1.4-2.8,1.8s-2.1,0.6-3.2,0.6c-1.1,0-2.2-0.2-3.2-0.7
			c-1-0.4-1.9-1.1-2.7-1.9c-0.8-0.8-1.4-1.7-1.8-2.7c-0.4-1-0.6-2.1-0.6-3.2c0-1.1,0.2-2.2,0.7-3.2c0.4-1,1.1-2,1.9-2.8
			c0.8-0.8,1.7-1.4,2.7-1.8C583.2,5.3,584.2,5.1,585.4,5.1z M585.4,6.3c-1,0-1.9,0.2-2.7,0.5c-0.8,0.3-1.6,0.8-2.3,1.5
			c-0.7,0.7-1.2,1.5-1.6,2.4c-0.4,0.9-0.6,1.8-0.6,2.7c0,0.9,0.2,1.8,0.5,2.7c0.4,0.9,0.9,1.6,1.5,2.3c0.7,0.7,1.4,1.2,2.3,1.6
			c0.9,0.4,1.7,0.6,2.6,0.6c1,0,1.9-0.2,2.8-0.5c0.9-0.4,1.7-0.9,2.4-1.6c0.7-0.6,1.2-1.4,1.5-2.2c0.4-0.8,0.5-1.7,0.5-2.7
			c0-1-0.2-1.9-0.5-2.8c-0.3-0.9-0.8-1.6-1.5-2.3c-0.7-0.7-1.5-1.2-2.3-1.6C587.3,6.5,586.4,6.3,585.4,6.3z M582,8.6h3.6
			c1.3,0,2.3,0.2,3,0.6c0.7,0.4,1,1.1,1,1.9c0,0.7-0.2,1.3-0.5,1.7c-0.4,0.4-0.9,0.7-1.6,0.9l2.1,4.3h-2.3l-1.9-3.9H584V18h-2V8.6z
			 M584,9.9v3h1.3c0.8,0,1.3-0.1,1.7-0.3c0.3-0.2,0.5-0.6,0.5-1.1c0-0.5-0.2-0.9-0.5-1.1c-0.4-0.2-0.9-0.4-1.7-0.4H584z"/>
	</g>
	<g>
		<g>
			<path fill="#FFFFFF" d="M38.8,25.3c-2-1.7-4.2-3.1-6.5-3.9C30,20.5,27.6,20,25.1,20c-4.9,0-8.8,1.6-11.9,4.7
				c-3.1,3.1-4.6,7.2-4.6,12.1c0,4.8,1.5,8.8,4.5,11.9c3,3.1,6.7,4.7,11.2,4.7c2.6,0,5.1-0.5,7.5-1.4c2.4-0.9,4.7-2.3,6.9-4.2V56
				c-1.9,1.4-4.1,2.4-6.4,3.1c-2.3,0.7-4.8,1-7.5,1c-3.4,0-6.6-0.6-9.4-1.7s-5.4-2.8-7.6-4.9c-2.2-2.1-3.8-4.6-5-7.5
				c-1.2-2.9-1.7-6-1.7-9.2c0-3.3,0.6-6.3,1.7-9.2C4,24.7,5.7,22.2,7.9,20c2.2-2.2,4.7-3.8,7.6-5s6-1.7,9.3-1.7
				c2.6,0,5.1,0.4,7.5,1.1c2.4,0.8,4.7,1.9,6.9,3.5L38.8,25.3z"/>
			<path fill="#FFFFFF" d="M47.8,59V14.4h24.9v6.1H55v11.2h17.6v6.4H55v14.4h17.6V59H47.8z"/>
			<path fill="#FFFFFF" d="M80.6,50.9c0.8,0.9,1.5,1.5,2.2,1.9c0.7,0.4,1.4,0.6,2.2,0.6c1.4,0,2.4-0.5,3-1.4
				c0.6-0.9,0.9-2.7,0.9-5.2V14.4H96v34.8c0,3.8-0.8,6.5-2.5,8.3c-1.7,1.8-4.3,2.7-7.8,2.7c-1.9,0-3.7-0.4-5.3-1.1
				c-1.6-0.8-3.1-1.9-4.5-3.5L80.6,50.9z"/>
			<path fill="#FFFFFF" d="M135,59l-5.1-11.5h-17.7L107.1,59h-7.6L121,12.7L142.6,59H135z M114.9,41.5h12.4l-4.6-10.2
				c-0.3-0.6-0.5-1.4-0.8-2.2c-0.3-0.8-0.6-1.8-0.9-2.8c-0.2,1-0.5,1.9-0.8,2.7c-0.3,0.8-0.6,1.6-0.8,2.3L114.9,41.5z"/>
			<path fill="#FFFFFF" d="M144.2,50.1l5.8-2.7c0.5,2,1.6,3.5,3,4.5c1.5,1,3.3,1.6,5.6,1.6c2.2,0,3.9-0.6,5.1-1.8
				c1.3-1.2,1.9-2.8,1.9-4.8c0-2.6-2.2-5-6.5-7c-0.6-0.3-1.1-0.5-1.4-0.7c-4.9-2.4-8.2-4.6-9.8-6.5c-1.6-1.9-2.4-4.3-2.4-7.1
				c0-3.6,1.2-6.6,3.7-8.8s5.7-3.4,9.7-3.4c3.3,0,6,0.6,8.2,1.9c2.2,1.3,3.7,3.1,4.6,5.5l-5.7,2.9c-0.9-1.4-1.9-2.4-2.9-3.1
				c-1.1-0.6-2.3-1-3.7-1c-1.9,0-3.5,0.5-4.6,1.5c-1.1,1-1.7,2.4-1.7,4.1c0,2.7,2.5,5.2,7.5,7.5c0.4,0.2,0.7,0.3,0.9,0.4
				c4.4,2,7.4,4,9.1,5.9c1.6,1.9,2.5,4.4,2.5,7.3c0,4.2-1.3,7.6-4,10.1c-2.7,2.5-6.2,3.7-10.8,3.7c-3.8,0-6.9-0.9-9.3-2.6
				C146.6,55.8,145,53.3,144.2,50.1z"/>
			<path fill="#FFFFFF" d="M197.3,50.1l5.8-2.7c0.5,2,1.6,3.5,3,4.5c1.5,1,3.3,1.6,5.6,1.6c2.2,0,3.9-0.6,5.1-1.8
				c1.3-1.2,1.9-2.8,1.9-4.8c0-2.6-2.2-5-6.5-7c-0.6-0.3-1.1-0.5-1.4-0.7c-4.9-2.4-8.2-4.6-9.8-6.5c-1.6-1.9-2.4-4.3-2.4-7.1
				c0-3.6,1.2-6.6,3.7-8.8c2.5-2.3,5.7-3.4,9.7-3.4c3.3,0,6,0.6,8.2,1.9c2.2,1.3,3.7,3.1,4.6,5.5l-5.7,2.9c-0.9-1.4-1.9-2.4-2.9-3.1
				c-1.1-0.6-2.3-1-3.7-1c-1.9,0-3.5,0.5-4.6,1.5c-1.1,1-1.7,2.4-1.7,4.1c0,2.7,2.5,5.2,7.5,7.5c0.4,0.2,0.7,0.3,0.9,0.4
				c4.4,2,7.4,4,9.1,5.9c1.6,1.9,2.5,4.4,2.5,7.3c0,4.2-1.3,7.6-4,10.1c-2.7,2.5-6.2,3.7-10.8,3.7c-3.8,0-6.9-0.9-9.3-2.6
				C199.6,55.8,198,53.3,197.3,50.1z"/>
			<path fill="#FFFFFF" d="M240.8,39v20H234V14.4h11c3.2,0,5.6,0.2,7.2,0.5c1.5,0.4,2.9,0.9,4,1.7c1.4,1,2.5,2.4,3.3,4.2
				c0.8,1.8,1.2,3.7,1.2,5.8c0,2.1-0.4,4.1-1.2,5.8c-0.8,1.8-1.9,3.2-3.3,4.2c-1.1,0.8-2.5,1.4-4,1.7c-1.5,0.3-3.9,0.5-7.2,0.5h-1.4
				H240.8z M241.3,33.1h1.9c4,0,6.7-0.4,8-1.3c1.3-0.9,2-2.4,2-4.6c0-2.4-0.7-4-2.1-5c-1.4-1-4.1-1.5-7.9-1.5h-1.9V33.1z"/>
			<path fill="#FFFFFF" d="M293.2,59l-5.1-11.5h-17.7L265.3,59h-7.6l21.6-46.3L300.9,59H293.2z M273.2,41.5h12.4L281,31.3
				c-0.3-0.6-0.5-1.4-0.8-2.2c-0.3-0.8-0.6-1.8-0.9-2.8c-0.2,1-0.5,1.9-0.8,2.7c-0.3,0.8-0.6,1.6-0.8,2.3L273.2,41.5z"/>
			<path fill="#FFFFFF" d="M323.9,59V14.4h11.2c3.2,0,5.6,0.2,7.1,0.5c1.5,0.3,2.8,0.9,3.9,1.7c1.4,1,2.4,2.3,3.2,4
				c0.8,1.6,1.1,3.5,1.1,5.4c0,2.4-0.5,4.4-1.6,5.9c-1.1,1.6-2.7,2.7-4.8,3.3c2.6,0.4,4.6,1.6,6.1,3.5c1.5,2,2.2,4.4,2.2,7.4
				c0,1.8-0.3,3.5-0.9,5.1c-0.6,1.6-1.5,3-2.7,4.1c-1.2,1.2-2.7,2.1-4.5,2.6c-1.8,0.5-4.8,0.8-9.1,0.8H323.9z M331,33.2h2.8
				c3.4,0,5.9-0.5,7.3-1.4c1.4-0.9,2.1-2.5,2.1-4.8c0-2.4-0.7-4.1-2-5.1c-1.3-1-3.8-1.5-7.5-1.5H331V33.2z M331,52.9h2.5
				c2.5,0,4.4-0.1,5.7-0.3c1.3-0.2,2.3-0.6,3-1.1c0.9-0.6,1.6-1.4,2.1-2.4c0.5-1,0.7-2.1,0.7-3.3c0-1.4-0.3-2.7-0.9-3.7
				c-0.6-1.1-1.4-1.9-2.5-2.5c-0.7-0.3-1.5-0.6-2.4-0.8c-0.9-0.2-2.1-0.2-3.5-0.2h-2.2H331V52.9z"/>
			<path fill="#FFFFFF" d="M405.5,36.8c0,3.2-0.6,6.2-1.8,9c-1.2,2.8-2.9,5.3-5.2,7.5c-2.3,2.2-4.9,3.9-7.8,5.1
				c-2.9,1.2-5.9,1.8-9.1,1.8c-3.2,0-6.3-0.6-9.2-1.8c-2.9-1.2-5.5-2.9-7.7-5.1c-2.3-2.2-4-4.7-5.2-7.5c-1.2-2.8-1.8-5.8-1.8-9
				c0-3.2,0.6-6.2,1.8-9c1.2-2.8,2.9-5.3,5.2-7.6c2.3-2.2,4.8-3.9,7.7-5.1c2.9-1.2,5.9-1.7,9.2-1.7c3.2,0,6.2,0.6,9.1,1.7
				c2.9,1.2,5.4,2.8,7.7,5.1c2.3,2.3,4,4.8,5.2,7.6S405.5,33.7,405.5,36.8z M397.9,36.8c0-2.3-0.4-4.4-1.2-6.4c-0.8-2-2-3.8-3.5-5.4
				c-1.5-1.6-3.2-2.8-5.2-3.6c-2-0.8-4.1-1.3-6.3-1.3s-4.3,0.4-6.3,1.2c-2,0.8-3.7,2-5.3,3.6c-1.5,1.6-2.7,3.4-3.5,5.4
				c-0.8,2-1.2,4.2-1.2,6.5c0,2.3,0.4,4.4,1.2,6.4c0.8,2,2,3.8,3.5,5.4c1.5,1.6,3.3,2.8,5.3,3.6c2,0.8,4.1,1.2,6.3,1.2
				c2.2,0,4.2-0.4,6.2-1.2c2-0.8,3.7-2,5.3-3.6c1.5-1.6,2.7-3.4,3.5-5.4C397.5,41.2,397.9,39,397.9,36.8z"/>
			<path fill="#FFFFFF" d="M438.4,36.2h17.7c0,0.3,0,0.7,0,1.3c0.1,1.4,0.1,2.4,0.1,2.9c0,6.3-1.8,11.1-5.4,14.6
				c-3.6,3.5-8.7,5.2-15.2,5.2c-3.7,0-6.9-0.5-9.8-1.6c-2.9-1.1-5.4-2.7-7.5-4.9c-2.1-2.2-3.7-4.7-4.9-7.6c-1.1-2.9-1.7-6-1.7-9.3
				c0-3.4,0.6-6.5,1.7-9.3c1.1-2.8,2.8-5.3,5.1-7.5c2.2-2.1,4.7-3.8,7.6-4.9c2.9-1.1,6-1.7,9.4-1.7c3.5,0,6.6,0.6,9.4,1.9
				c2.8,1.3,5.2,3.2,7.4,5.9l-5.3,4c-1.5-1.7-3.2-3-5.1-3.9c-1.9-0.9-4-1.3-6.3-1.3c-4.8,0-8.8,1.5-11.8,4.6
				c-3.1,3.1-4.6,7.1-4.6,12.1c0,5,1.5,9.1,4.6,12.2c3.1,3.1,7,4.7,11.9,4.7c4.1,0,7.4-1,9.8-2.9c2.4-1.9,3.6-4.6,3.6-7.9v-0.6
				h-10.7V36.2z"/>
			<path fill="#FFFFFF" d="M509.5,36.8c0,3.2-0.6,6.2-1.8,9c-1.2,2.8-2.9,5.3-5.2,7.5c-2.3,2.2-4.9,3.9-7.8,5.1
				c-2.9,1.2-5.9,1.8-9.1,1.8c-3.2,0-6.3-0.6-9.2-1.8c-2.9-1.2-5.5-2.9-7.7-5.1c-2.3-2.2-4-4.7-5.2-7.5c-1.2-2.8-1.8-5.8-1.8-9
				c0-3.2,0.6-6.2,1.8-9c1.2-2.8,2.9-5.3,5.2-7.6c2.3-2.2,4.8-3.9,7.7-5.1c2.9-1.2,5.9-1.7,9.2-1.7c3.2,0,6.2,0.6,9.1,1.7
				c2.9,1.2,5.4,2.8,7.7,5.1c2.3,2.3,4,4.8,5.2,7.6C508.9,30.7,509.5,33.7,509.5,36.8z M502,36.8c0-2.3-0.4-4.4-1.2-6.4
				c-0.8-2-2-3.8-3.5-5.4c-1.5-1.6-3.2-2.8-5.2-3.6c-2-0.8-4.1-1.3-6.3-1.3s-4.3,0.4-6.3,1.2c-2,0.8-3.7,2-5.3,3.6
				c-1.5,1.6-2.7,3.4-3.5,5.4c-0.8,2-1.2,4.2-1.2,6.5c0,2.3,0.4,4.4,1.2,6.4c0.8,2,2,3.8,3.5,5.4c1.5,1.6,3.3,2.8,5.3,3.6
				c2,0.8,4.1,1.2,6.3,1.2c2.2,0,4.2-0.4,6.2-1.2c2-0.8,3.7-2,5.3-3.6c1.5-1.6,2.7-3.4,3.5-5.4C501.5,41.2,502,39,502,36.8z"/>
			<path fill="#FFFFFF" d="M530,20.6V59h-7.2V20.6h-11.8v-6.1h30.9v6.1H530z"/>
			<path fill="#FFFFFF" d="M576.7,59l-5.1-11.5H554L548.9,59h-7.6l21.6-46.3L584.4,59H576.7z M556.7,41.5h12.4l-4.6-10.2
				c-0.3-0.6-0.5-1.4-0.8-2.2c-0.3-0.8-0.6-1.8-0.9-2.8c-0.2,1-0.5,1.9-0.8,2.7c-0.3,0.8-0.6,1.6-0.8,2.3L556.7,41.5z M558.5,10.1
				l5.8-8.3h6.8l-8.9,8.3H558.5z"/>
		</g>
		<g id="XMLID_1_">
			<path id="XMLID_68_" fill="#FFFFFF" stroke="#FFFFFF" stroke-width="0.8024" stroke-miterlimit="10" d="M325.2,95v10h-1.6V76.2
				h7.6c2.2,0.3,4.1,1.2,5.6,2.8c1.8,1.8,2.8,4.1,2.8,6.7c0,2.6-0.9,4.8-2.8,6.7c-1.8,1.8-4.1,2.8-6.7,2.8H325.2z M325.2,77.8v15.6
				h4.9c2.1,0,4-0.8,5.5-2.3c1.5-1.5,2.3-3.4,2.3-5.5c0-2.2-0.8-4-2.3-5.5c-1.5-1.5-3.4-2.3-5.5-2.3H325.2z"/>
			<path id="XMLID_65_" fill="#FFFFFF" stroke="#FFFFFF" stroke-width="0.8024" stroke-miterlimit="10" d="M344.7,101.7
				c1.5,1.4,3.3,2.1,5.5,2.1c2.3,0,4.2-0.8,5.8-2.4c0.2-0.2,0.4-0.4,0.6-0.6l1.7,0.6c-0.3,0.4-0.7,0.8-1.1,1.2
				c-1.9,1.9-4.3,2.9-7,2.9c-2.7,0-5.1-1-7-2.9c-1.9-1.9-2.9-4.3-2.9-7c0-2.7,1-5.1,2.9-7c1.9-1.9,4.3-2.9,7-2.9
				c2.3,0,4.4,0.7,6.2,2.1c0.3,0.2,0.6,0.5,0.9,0.8c0.1,0.1,0.2,0.2,0.3,0.3l-1.2,1.2L344.7,101.7z M355.1,89.1
				c-1.4-1.1-3-1.6-4.9-1.6c-2.3,0-4.2,0.8-5.8,2.4c-1.6,1.6-2.4,3.5-2.4,5.8c0,1.9,0.5,3.5,1.6,4.9L355.1,89.1z"/>
			<path id="XMLID_63_" fill="#FFFFFF" stroke="#FFFFFF" stroke-width="0.8024" stroke-miterlimit="10" d="M362.3,87.3h1.6v3.2
				c0.3-0.5,0.7-0.9,1.2-1.4c1.4-1.4,2.9-2.2,4.4-2.3v1.8c-1,0-2.1,0.6-3.2,1.7c-1.5,1.5-2.3,3.4-2.4,5.5v9.2h-1.6V87.3z"/>
			<path id="XMLID_61_" fill="#FFFFFF" stroke="#FFFFFF" stroke-width="0.8024" stroke-miterlimit="10" d="M376.6,88.9V105H375V88.9
				h-1.8v-1.6h1.8v-4.8c0.1-1.3,0.6-2.5,1.5-3.4c1-0.9,2.1-1.4,3.4-1.4c0.7,0,1.4,0.1,2.1,0.4l-0.5,1.4c-0.5-0.2-1-0.3-1.5-0.3
				c-0.9,0-1.7,0.3-2.4,1c-0.7,0.7-1,1.5-1.1,2.4v4.7h3.6v1.6H376.6z"/>
			<path id="XMLID_58_" fill="#FFFFFF" stroke="#FFFFFF" stroke-width="0.8024" stroke-miterlimit="10" d="M386.9,101.7
				c1.5,1.4,3.3,2.1,5.5,2.1c2.3,0,4.2-0.8,5.8-2.4c0.2-0.2,0.4-0.4,0.6-0.6l1.7,0.6c-0.3,0.4-0.7,0.8-1.1,1.2
				c-1.9,1.9-4.3,2.9-7,2.9c-2.7,0-5.1-1-7-2.9c-1.9-1.9-2.9-4.3-2.9-7c0-2.7,1-5.1,2.9-7c1.9-1.9,4.3-2.9,7-2.9
				c2.3,0,4.4,0.7,6.2,2.1c0.3,0.2,0.6,0.5,0.9,0.8c0.1,0.1,0.2,0.2,0.3,0.3l-1.2,1.2L386.9,101.7z M397.2,89.1
				c-1.4-1.1-3-1.6-4.9-1.6c-2.3,0-4.2,0.8-5.8,2.4c-1.6,1.6-2.4,3.5-2.4,5.8c0,1.9,0.5,3.5,1.6,4.9L397.2,89.1z"/>
			<path id="XMLID_56_" fill="#FFFFFF" stroke="#FFFFFF" stroke-width="0.8024" stroke-miterlimit="10" d="M419.7,100.8l1.7,0.6
				c-0.3,0.4-0.7,0.8-1.1,1.2c-1.9,1.9-4.3,2.9-7,2.9c-2.7,0-5.1-1-7-2.9c-1.9-1.9-2.9-4.3-2.9-7c0-2.7,1-5.1,2.9-7
				c1.9-1.9,4.3-2.9,7-2.9c2.7,0,5.1,1,7,2.9c0.4,0.4,0.8,0.8,1.1,1.2l-1.7,0.6c-0.2-0.2-0.4-0.4-0.6-0.6c-1.6-1.6-3.5-2.4-5.8-2.4
				c-2.3,0-4.2,0.8-5.8,2.4c-1.6,1.6-2.4,3.5-2.4,5.8s0.8,4.2,2.4,5.8c1.6,1.6,3.5,2.4,5.8,2.4c2.3,0,4.2-0.8,5.8-2.4
				C419.3,101.2,419.5,101,419.7,100.8z"/>
			<path id="XMLID_54_" fill="#FFFFFF" stroke="#FFFFFF" stroke-width="0.8024" stroke-miterlimit="10" d="M428.1,87.3v-7.5h1.6v7.5
				h3.6v1.6h-3.6V105h-1.6V88.9h-3.6v-1.6H428.1z"/>
			<path id="XMLID_52_" fill="#FFFFFF" stroke="#FFFFFF" stroke-width="0.8024" stroke-miterlimit="10" d="M451.8,76.2l10.8,18.8
				l10.8-18.8h1.9l-0.1,0.1V105h-1.6V79.1l-11,19l-11-19V105H450V76.3l-0.1-0.1H451.8z"/>
			<path id="XMLID_49_" fill="#FFFFFF" stroke="#FFFFFF" stroke-width="0.8024" stroke-miterlimit="10" d="M499.7,105h-1.6v-3.6
				c-0.3,0.4-0.7,0.8-1,1.2c-1.9,1.9-4.3,2.9-7,2.9c-2.7,0-5.1-1-7-2.9c-1.9-1.9-2.9-4.3-2.9-7c0-2.7,1-5.1,2.9-7
				c1.9-1.9,4.3-2.9,7-2.9c2.7,0,5.1,1,7,2.9c0.4,0.4,0.7,0.8,1,1.2v-2.5h1.6V105z M498.1,97.2V94c-0.3-1.6-1.1-3-2.3-4.2
				c-1.6-1.6-3.5-2.4-5.8-2.4c-2.3,0-4.2,0.8-5.8,2.4c-1.6,1.6-2.4,3.5-2.4,5.8c0,2.3,0.8,4.2,2.4,5.8c1.6,1.6,3.5,2.4,5.8,2.4
				c2.3,0,4.2-0.8,5.8-2.4C497,100.2,497.8,98.8,498.1,97.2z"/>
			<path id="XMLID_36_" fill="#FFFFFF" stroke="#FFFFFF" stroke-width="0.8024" stroke-miterlimit="10" d="M513.5,87.3l-4.4,5.4
				l7,12.3h-2l-6-11l-1.6,2v9h-1.6V79.8h1.6v13.6l4.9-6.1H513.5z"/>
			<path id="XMLID_16_" fill="#FFFFFF" stroke="#FFFFFF" stroke-width="0.8024" stroke-miterlimit="10" d="M522.2,101.7
				c1.5,1.4,3.3,2.1,5.5,2.1c2.3,0,4.2-0.8,5.8-2.4c0.2-0.2,0.4-0.4,0.6-0.6l1.7,0.6c-0.3,0.4-0.7,0.8-1.1,1.2
				c-1.9,1.9-4.3,2.9-7,2.9c-2.7,0-5.1-1-7-2.9s-2.9-4.3-2.9-7c0-2.7,1-5.1,2.9-7c1.9-1.9,4.3-2.9,7-2.9c2.3,0,4.4,0.7,6.2,2.1
				c0.3,0.2,0.6,0.5,0.9,0.8c0.1,0.1,0.2,0.2,0.3,0.3l-1.2,1.2L522.2,101.7z M532.6,89.1c-1.4-1.1-3-1.6-4.9-1.6
				c-2.3,0-4.2,0.8-5.8,2.4c-1.6,1.6-2.4,3.5-2.4,5.8c0,1.9,0.5,3.5,1.6,4.9L532.6,89.1z"/>
			<path id="XMLID_11_" fill="#FFFFFF" stroke="#FFFFFF" stroke-width="0.8024" stroke-miterlimit="10" d="M547.2,105.3
				c-2.2,0-4-0.7-5.3-2c-1.3-1.3-2-3-2-5v-11h1.6v10.9c0,1.5,0.5,2.8,1.6,3.8c1.1,1.1,2.4,1.6,4,1.6c1.5,0,2.8-0.5,3.9-1.6
				c1.1-1.1,1.6-2.3,1.6-3.9V87.3h1.6v11c0,2-0.7,3.7-2,5C551,104.6,549.3,105.3,547.2,105.3z"/>
			<path id="XMLID_6_" fill="#FFFFFF" stroke="#FFFFFF" stroke-width="0.8024" stroke-miterlimit="10" d="M559.5,87.3h1.6v2.5
				c0.3-0.4,0.6-0.8,1-1.2c1.9-1.9,4.3-2.9,7-2.9c2.7,0,5.1,1,7,2.9c1.9,1.9,2.9,4.3,2.9,7c0,2.7-1,5.1-2.9,7
				c-1.9,1.9-4.3,2.9-7,2.9c-2.7,0-5.1-1-7-2.9c-0.4-0.4-0.7-0.8-1-1.2v10.4h-1.6V87.3z M561.1,93.9v3.4c0.3,1.6,1.1,2.9,2.2,4.1
				c1.6,1.6,3.5,2.4,5.8,2.4s4.2-0.8,5.8-2.4c1.6-1.6,2.4-3.5,2.4-5.8c0-2.3-0.8-4.2-2.4-5.8c-1.6-1.6-3.5-2.4-5.8-2.4
				s-4.2,0.8-5.8,2.4C562.2,91,561.4,92.4,561.1,93.9z"/>
			<path id="XMLID_2_" fill="#FFFFFF" stroke="#FFFFFF" stroke-width="0.8024" stroke-miterlimit="10" d="M583.9,102.5
				c0.3,0.3,0.5,0.7,0.5,1.1c0,0.5-0.2,0.8-0.5,1.2c-0.3,0.3-0.7,0.5-1.1,0.5c-0.4,0-0.8-0.2-1.1-0.5c-0.3-0.3-0.5-0.7-0.5-1.2
				c0-0.4,0.2-0.8,0.5-1.1c0.3-0.3,0.7-0.5,1.1-0.5C583.2,102.1,583.6,102.2,583.9,102.5z"/>
		</g>
	</g>
</g>
</svg>
