<?xml version="1.0" encoding="utf-8"?>
<!-- Generator: Adobe Illustrator 18.1.1, SVG Export Plug-In . SVG Version: 6.00 Build 0)  -->
<svg version="1.1" id="Capa_1" xmlns="http://www.w3.org/2000/svg" xmlns:xlink="http://www.w3.org/1999/xlink" x="0px" y="0px"
	 viewBox="0 0 378.6 349.3" enable-background="new 0 0 378.6 349.3" xml:space="preserve">
<rect x="0" y="0" fill="none" width="378.6" height="349.3"/>
<g>
	<path fill="#353535" d="M141.6,199.5c49.7-7.4,97.3-1.9,143.7,17.3c0.5-1.4,1-2.6,1.3-3.9c4.2-16.3,9.4-32.2,17.4-47.1
		c1.6-3.1,3.6-6,5.7-8.7c0.8-1,2.9-2,4-1.7c2.2,0.7,3.4,2.8,2.4,5.2c-1.2,3-2.8,5.8-4.3,8.7c-0.7,1.4-1.4,2.7-2.2,4.1
		c3.8-1.7,7.4-4.5,11.1-4.7c4.8-0.3,6.2,4.4,7.2,8.7c4.8-1.2,9.5-2.4,14.2-3.7c0.7-0.2,1.4-0.9,1.9-1.5c4.9-5.6,9.7-5.8,14.9-0.6
		c0.4,0.4,0.9,0.8,1.6,1.4c1.1-0.9,2.1-2,3.3-2.6c0.7-0.4,2-0.6,2.5-0.2c0.5,0.4,0.9,1.7,0.6,2.4c-1,2.6-2.3,5-3.3,7.6
		c-2.3,5.8-4.6,11.5-6.7,17.4c-0.4,1.1,0.4,2.6,0.7,4c1.2-0.6,2.8-1,3.5-2c3.5-5.2,6.7-10.5,9.9-15.8c0.8-1.2,1.6-2.5,2.4-3.7
		c0.3,0.1,0.7,0.3,1,0.4c-0.2,0.9-0.2,1.9-0.7,2.7c-3,5.6-6.1,11.1-9.3,16.7c-0.6,1-1.5,2.2-2.5,2.5c-2,0.6-4.4,1.3-6,0.6
		c-1.4-0.6-3.1-3.3-2.9-4.8c0.8-5.4,2.3-10.7,3.6-16c0.3-1.2,1.1-2.3,1-4c-1.6,1.9-3.2,3.8-4.9,5.7c-1.5,1.7-2.8,3.8-4.7,4.9
		c-1.6,1-4.4,1.7-5.7,0.9c-1.6-0.9-2.8-3.5-2.9-5.4c-0.1-2.6,1.1-5.3,1.8-8.6c-4.8,1.7-9.3,3.1-13.6,4.8c-1,0.4-1.6,1.7-2.3,2.7
		c-2.8,4.5-6.9,7.2-12,8.5c-1.2,0.3-2.8,0.6-3.9,0.1c-1.7-0.7-3.1-1.9-4.6-3c1-1.3,1.8-3.1,3.1-3.8c3.3-1.8,6.8-3,10.2-4.5
		c1.1-0.5,2.8-0.7,3.2-1.5c0.9-1.9,1.2-4.1,1.8-6.2c-1.7,0-3.8-0.6-5.1,0.1c-7.5,4.5-13.4,10.8-16.9,18.7
		c-3.8,8.4-6.5,17.3-9.8,25.9c-1,2.5,0.6,2.9,2.1,3.6c17.6,8.7,34,19.4,48.8,32.5c2.3,2.1,4.6,4.2,6.9,6.4c0.3,0.3,0.6,0.7,0.7,1.3
		c-18-15.8-37.7-28.9-60.2-38.4c-0.9,2.3-1.5,4.4-2.5,6.2c-0.4,0.7-1.7,1.5-2.3,1.3c-0.7-0.2-1.3-1.4-1.7-2.2
		c-0.2-0.6,0.1-1.4,0.2-2.1c1.1-5.4,1.1-5.5-4.2-7.4c-43.2-15.2-87.3-20.6-132.7-11.8c-8.1,1.6-6.4,0.6-7.9,7.9
		c-5.9,29-14.5,57.1-30,82.6c-11.3,18.5-25.6,33.9-45.7,43.1c-10,4.6-20.2,7.2-31.4,5.8c-10.6-1.3-17.3-6.9-22-15.9
		c-4.9-9.4-4.6-19.5-3.1-29.6c2.9-18.9,14.2-32.8,27.7-45.2c22.9-20.8,49.3-35.8,78.2-46.5c7.1-2.6,14.4-4.8,21.5-7.4
		c1.3-0.5,2.9-1.7,3.1-2.8c1.6-9,2.8-18,4.1-27c-0.3-0.1-0.6-0.2-0.9-0.3c-0.6,1.1-1.2,2.2-1.8,3.3c-9.7,18.6-24.1,31.5-44.4,37.6
		c-10.8,3.3-20.5,0.3-27.2-8.7c-5.7-7.6-7.8-16.1-7.1-25.8c1.7-24.6,15.7-40.5,36.1-51.4c16.5-8.8,33.6-4.1,44.9,11.2
		c0.9,1.2,1.7,2.5,2.3,4c-2.3-2.5-4.4-5.1-6.8-7.5c-11.2-11-25.3-13.4-39-5.8c-15.7,8.7-27.9,21-33.6,38.4
		c-3.8,11.6-2.8,22.9,5.2,32.7c6.3,7.7,14.5,10,23.9,6.8c24.9-8.4,39.7-26.4,48.1-50.5c0.6-1.8,1.8-3.3,2.8-5
		c0.5,1.9,1.6,3.9,1.5,5.8c-1,12.4-2.3,24.9-3.4,37.3C141.9,195.8,141.8,197.4,141.6,199.5z M135.1,209.8c-2,0.6-3.2,0.8-4.2,1.3
		c-10.9,4.5-21.9,8.6-32.5,13.8C73.2,237,50,252.1,30.5,272.4c-9.4,9.8-17.5,20.5-20.1,34.3c-2.3,12.4,2,19.8,14,23.8
		c1.7,0.6,3.5,1,5.2,1.3c11.3,2.2,21.7-1.2,31.8-5.4c20.3-8.6,34.6-23.9,45.9-42.3c12.1-19.6,19.6-41.1,25.1-63.4
		C133.4,217.4,134.1,214.1,135.1,209.8z M345,188.7c4-4.4,7.6-8.2,10.8-12.2c0.6-0.7,0-2.5-0.4-3.7c-0.1-0.2-1.5-0.4-2.2-0.1
		C349.4,174.3,344.3,183.2,345,188.7z M318.1,182.7c-3.5,1.7-6.9,3.5-10.4,5.2C311.9,189.1,315.8,187.2,318.1,182.7z"/>
	<path fill="#353535" d="M293.8,68.5c2.6-4.4,4.9-9,7.9-13.2c2.9-4,6.3-7.9,10-11.2c3.9-3.4,7.6-3.1,10.8-0.6
		c2.8,2.2,4.4,7.4,2.5,11.2c-1.4,2.9-3.4,6-5.9,8c-6,4.8-12.3,9.3-18.8,13.3c-7.8,4.8-15.6,9.2-17.6,19.3c0.5-1.4,0.9-2.9,1.4-4.3
		c0.5-1.5,1.1-2.9,1.7-4.4c-0.2-0.3-0.5-0.6-0.7-0.9c-8,6-16,11.9-24,17.9c0.6-0.9,1.3-1.8,2.2-3c-13.5-2.7-24.1-9.9-33.6-19.4
		c-10.7,11.3-22.9,19.4-38.1,22.1c0-0.3,0-0.7,0.1-1c-1.1-1.4-2-3.1-3.4-4.1c-5.5-4.2-11.1-8.3-16.6-12.4c-0.2,0.2-0.5,0.4-0.7,0.6
		c0.8,2.3,1.6,4.6,2.5,6.9c-0.1,0.1-0.2,0.1-0.4,0.2c-0.2-0.4-0.6-0.7-0.7-1.2c-1.7-6.3-5.9-10.3-11.5-13.5c-6.9-4-13.6-8.6-20-13.4
		c-3.2-2.4-6.2-5.5-8.3-8.8c-3.5-5.7-1.1-12.4,4.5-14.3c1.3-0.5,3.4-0.7,4.4,0.1c3.6,2.5,7.5,4.9,10.2,8.3c4,5.1,7,10.9,10.3,16.4
		c0.9,1.4,1.6,2.9,2.3,4.3c0-5.5-0.8-11.1,0.2-16.4c3.2-17.2,19-20.2,28.5-16.4c7.2,2.8,10.3,9.6,7.1,15.6c-1.3,2.4-3.1,4-6.1,3.1
		c-3-1-3.5-3.3-1.3-5.4c0.3-0.3,0.7-0.6,1.1-0.9c4.8-3.4,4.5-4.5-0.4-7.9c-7.5-5.1-23.6,1.2-25.4,9.8c-1.8,8.3-1.7,16.3,2,23.9
		c5.1,10.6,16.6,14,26.8,8c8-4.8,13.2-12.2,17.2-20.3c0.7-1.4-0.5-3.6-1.6-5.3c-1.9,3.4-3.7,6.8-5.6,10.2c-0.2-0.1-0.3-0.2-0.5-0.2
		c1.4-3.8,3-7.6,4.2-11.5c0.5-1.6,0.5-3.5,0.1-5.2c-1.9-7.9-2.8-15.9-0.2-23.8c0.7-2.2,1.8-4.5,3.2-6.4c2.5-3.4,5.2-3.5,6.8,0.3
		c2,4.8,3.5,10,4.1,15.1c0.9,7.9-1,15.6-4.4,22.7c-1,2.2-0.8,3.7,0.6,5.5c2.9,3.6,5.7,7.4,8.9,11.6c3.1-4.2,5.9-7.8,8.3-11.6
		c0.5-0.8,0-2.5-0.5-3.6c-5-10.7-7-21.7-4-33.2c0.7-2.5,1.8-5,3.2-7.2c1.8-2.9,4.3-3.2,6-0.3c2.3,4,4.5,8.4,4.9,12.8
		c0.5,5.9,0,12.1-1.5,17.8c-1.3,4.8-0.7,8.7,1.3,12.7c1.2,2.3,2.5,4.5,3.2,7.2c-2.3-3.7-4.5-7.4-6.8-11.1c-0.2,0-0.5-0.1-0.7-0.1
		c0,1.4-0.6,3.1,0.1,4.1c3.4,5.1,6.7,10.3,10.8,14.7c6.2,6.6,14,10.1,23.1,6.6c9.2-3.5,12.2-11.6,13.3-20.6c0.2-2,0.1-4.1,0.1-6.1
		c0.1-13.5-10.7-18.7-20.7-18.3c-3,0.1-6.2,2.3-8.9,4c-2.1,1.3-2,3.1,0.4,4.4c0.5,0.3,1.2,0.5,1.5,0.9c1.1,1.3,2.3,2.6,2.8,4.2
		c0.2,0.5-1.7,2.3-2.6,2.3c-1.7,0-3.9-0.5-5-1.6c-3.3-3.3-2.9-9.4,0.6-13.1c4-4.2,9.2-5.7,14.8-5.1c13.9,1.4,22.3,12.9,20.4,27.8
		c-0.1,1.1-0.3,2.3-0.5,3.4C293.5,68.4,293.6,68.5,293.8,68.5z M181,90.7c3.7,3.1,6.8,5.9,10.2,8.4c0.8,0.6,2.3,0.8,3.3,0.6
		c13.5-2.7,23.9-10.6,33.2-20.3c-3.5-4.5-6.8-8.7-10.3-13.1C209.1,79.9,199.9,91.8,181,90.7z M166.1,79.8
		c-5-11.5-10.1-22.9-19.7-31.4c-1.5-1.3-3.4-2.3-5.4-2.8c-3-0.8-5.7,0.2-7.5,2.9c-1.7,2.5-0.8,5,0.9,6.9c2.4,2.7,4.9,5.3,7.7,7.5
		c7.3,5.5,14.8,10.6,22.2,15.9C165,79.2,165.6,79.5,166.1,79.8z M290.2,79.1c0.3,0.3,0.6,0.7,0.9,1c9.2-6.9,18.5-13.7,27.6-20.7
		c1.4-1.1,2.5-2.5,3.6-4c1.6-2.1,2.6-4.4,0.9-6.9c-1.8-2.7-4.6-3.9-7.5-2.9c-2.6,0.9-5.3,2.5-7.2,4.4
		C300.2,58.4,295.4,68.9,290.2,79.1z M275.7,90.8c-17.9,0.7-27.2-10.2-35.3-22.9c-2.9,3.9-5.7,7.5-8.4,11.1
		c6.4,8.7,22.6,17.9,33.3,19.1c0.6,0.1,1.5,0,1.9-0.3C269.8,95.7,272.3,93.6,275.7,90.8z M240.7,56.7c2.1-11.1,5.5-22.3-0.9-33.8
		C235.6,30.3,236.1,47.7,240.7,56.7z M217.7,22.8c-5.3,6.6-5.6,25.9-1,34.6C220.5,46,221.1,34.8,217.7,22.8z"/>
	<path fill="#353535" d="M202.6,179.9c-1.7,3.9-3.1,7-4.5,10c-1.5,3.1-3.7,5.1-7.4,4.2c-3.4-0.9-3.8-3.8-3.6-6.6
		c0.4-5.1,1.2-10.1,1.9-15.6c-1.2,1.9-2.4,3.6-3.6,5.4c-1.1,1.6-2.1,3.3-3.3,4.7c-3.1,3.7-6.6,2.9-9.2-2.3c-1.6,2.9-3,5.6-4.7,8.2
		c-2.2,3.3-4.4,7.3-9.1,6.5c-4.9-0.9-5.8-5.5-6.4-9.5c-2.7-16.4,1.6-31.4,10-45.4c2.1-3.5,4.5-6.8,7.4-9.7c1.3-1.3,4.6-2.4,5.9-1.6
		c1.6,1,3,3.9,2.9,5.9c-0.1,3.4-1.1,6.9-2.4,10.1c-3.8,8.9-8.7,17.1-16.5,23.3c-0.9,0.7-2,1.8-2.1,2.8c-0.5,6.3-0.9,12.6-0.9,18.9
		c0,1.4,1.3,2.9,2.6,5.6c3.2-3.8,6.1-6.5,8-9.8c2.8-4.7,5.1-9.8,7.1-14.9c2.8-7.1,8.3-10,15.9-3.8c0.3-0.1,0.6-0.2,1-0.4
		c1.5-0.8,3.1-1.7,4.6-2.5c-0.1,1.8,0.2,3.7-0.3,5.4c-1.4,5.1-3.4,10-4.6,15.1c-0.6,2.8-0.1,5.8-0.1,8.7c0.4,0.2,0.8,0.3,1.2,0.5
		c1.2-1.4,2.9-2.7,3.6-4.4c2.9-6.8,5.5-13.8,8.1-20.7c0.8-2,1.4-4.1,2.2-6.1c0.8-1.9,2.1-3,4.2-2.1c2.1,1,4.3,2.2,3.3,5.1
		c-1.2,3.4-2.7,6.7-3.9,10.1c-0.9,2.4-1.5,5-2.3,7.4c0.3,0.1,0.7,0.2,1,0.4c0.3-1,0.6-2,1-2.9c2.2-5,4.3-10.1,6.7-15.1
		c0.8-1.6,2-3.2,3.5-4.1c1.8-1,4.5-2.3,6-1.6c1.8,0.8,3.1,3.4,3.8,5.5c0.6,1.8-0.2,3.9-0.4,6.5c2-3.2,3.6-6,5.6-8.5
		c2-2.6,4.3-5.2,6.8-7.4c2.3-2.1,5.1-3.3,8.2-1.5c3,1.8,4.3,4.8,3.6,8c-1,4.6-2.5,9-3.9,13.4c-2,6-4.4,11.9-6.2,18
		c-0.6,2,0.2,4.3,0.4,6.5c1.8-1.2,4.2-2.1,5.2-3.8c3.1-5.1,5.7-10.5,8.4-15.8c0.8-1.6,1.5-3.2,2.3-4.7c0.3,0,0.7,0.1,1,0.1
		c0.1,1,0.6,2.1,0.2,2.9c-3.2,6.5-6.6,13-10,19.4c-0.3,0.5-0.8,0.9-1.2,1.3c-2.1,1.7-4.5,3.9-7,2.1c-1.9-1.3-3.7-4-3.9-6.2
		c-0.3-4.6,0-9.4,1.1-13.9c1.7-6.9,4.3-13.5,6.4-20.2c0.4-1.5,0-3.2,0-4.9c-1.7,0.7-4,0.9-4.9,2.1c-4.5,6.3-8.6,12.9-12.8,19.5
		c-0.5,0.8-0.6,1.9-1.2,2.6c-1,1.1-2.2,2.1-3.3,3.1c-0.9-1.3-2.4-2.6-2.5-4c0-3.8,0.5-7.6,0.9-11.4c0.2-1.7,0.8-3.4,1.4-5.9
		c-4.5,3.2-7.2,6.8-8.9,11.1c-1.6,3.9-2.6,8-4.1,11.9c-0.5,1.4-1.9,2.4-2.9,3.6c-1.4-1.2-3-2.1-4-3.6
		C203,183.7,203.1,182.1,202.6,179.9z M175.9,132.3c-6.9,9.6-12.2,19.9-15.8,31.1C168.7,154.7,175.4,145.1,175.9,132.3z M179,182.5
		c3-4.4,5.7-8.2,8.1-12.2c0.4-0.7-0.3-2.2-0.7-3.3c-0.1-0.3-1.3-0.4-1.8-0.1C181.2,168.4,177.4,177.8,179,182.5z"/>
	<path fill="#353535" d="M303.8,134c-2.1,0.2-3.6,0.2-4.9,0.6c-5.8,1.6-10.3,5.1-13.8,9.8c-2.5,3.4-4,7.3-2.7,11.5
		c1.7,5.4,3.8,10.7,5.9,16.4c4.8-2.8,8.9-5.2,13-7.7c0.3,0.5,0.6,0.9,0.8,1.4c-3,2-5.8,4.3-9,6.1c-2.8,1.6-3.9,3.3-3.5,6.8
		c1.8,14.9-15.7,22.5-25.1,19.5c-4.3-1.4-5.5-5.2-2.2-8.3c3.7-3.5,8.1-6.3,12.2-9.4c1.1-0.8,2.3-1.4,3.4-2c6.9-4.1,6.9-4,3.8-11.6
		c-1.8-4.5-3.6-9.1-5.1-13.8c-1.3-4.1-0.2-8.1,2-11.7c4.1-6.5,10.1-10.5,17.6-12.2c3.6-0.8,7.1-0.2,9.5,2.8c2.3,2.9,1.8,6.3,0.1,9.2
		c-2.4,3.9-5.4,7.6-8.4,11.2c-0.6,0.7-2.3,0.5-3.5,0.6c0.3-1.1,0.3-2.4,1-3.2C298.8,145.5,302,140.6,303.8,134z M284.2,177.3
		c-5.6,3.6-10.6,6.6-15.4,9.9c-1.9,1.3-3.5,2.9-4.9,4.7c-0.7,0.9-1.2,2.7-0.7,3.5c0.4,0.7,2.2,1.2,3.3,1.1
		C276,195.4,283.4,187.9,284.2,177.3z"/>
	<path fill="#353535" d="M204.9,130.9c9.3-0.2,17.8-3.2,26.1-7.7c-19-3.9-36.6-14.3-57-12.4c2-0.4,4.1-1.4,6.1-1.2
		c6.5,0.7,13.1,1.4,19.5,2.8c10.4,2.3,20.8,4.9,31.1,7.7c4,1.1,7,0,10.4-1.9c7.2-3.8,14.5-7.4,22.1-10.1c6.1-2.2,12.8-2.3,19.2-0.4
		c3.2,1,6.1,2.3,6.5,6.3c0.4,4.2-2,6.4-5.4,8.1c-7.2,3.5-15,4.5-22.8,4.3c-7.4-0.2-14.8-1.5-22.2-2c-2.5-0.2-5.2,0-7.5,0.9
		C222.6,128.9,214.2,132,204.9,130.9z M240.1,121.3c14.3,2.7,28.4,3,42.2-2.2c1.1-0.4,2.2-1,3.1-1.7c2.6-1.9,2.6-3.2-0.2-4.8
		c-1.9-1.1-4.2-1.9-6.4-2.3C264.3,108,251.9,113.4,240.1,121.3z"/>
	<path fill="#353535" d="M227.9,21.1c-4.6-6.3-5.1-12.5,0.3-18.5C233.6,8.7,232.5,14.9,227.9,21.1z"/>
	<path fill="#353535" d="M158.7,52.3c-3.3-4.1-3.6-8.3,0.1-12.3C162.8,44.1,161.8,48.2,158.7,52.3z"/>
	<path fill="#353535" d="M297.9,52.4c-3.3-4.3-3.6-8.4,0-12.3C301.6,44.4,301.6,45.6,297.9,52.4z"/>
	<path fill="#353535" d="M228,67.5c-3.3-4.3-3.5-8.4,0.1-12.3C232,59.2,231,63.3,228,67.5z"/>
	<path fill="#353535" d="M199.4,77.1c-4.5,3.6-9.5,5.4-14.2,5.1C189.3,80.7,194.3,78.9,199.4,77.1z"/>
	<path fill="#353535" d="M256,77.1c5,1.8,9.9,3.5,14.1,5C265.3,82.4,260.3,80.7,256,77.1z"/>
</g>
</svg>
