<?xml version="1.0" encoding="utf-8"?>
<!-- Generator: Adobe Illustrator 18.1.1, SVG Export Plug-In . SVG Version: 6.00 Build 0)  -->
<svg version="1.1" id="Capa_1" xmlns="http://www.w3.org/2000/svg" xmlns:xlink="http://www.w3.org/1999/xlink" x="0px" y="0px"
	 viewBox="22.1 0 567.9 792" enable-background="new 22.1 0 567.9 792" xml:space="preserve">
<rect x="22.1" fill="none" width="567.9" height="792"/>
<g>
	<path fill="#FFFFFF" d="M511.6,583.1H199.3c-2.6,0-4.3-2.3-4-4.6l4.3-25.4c2.3-14.1-15.6-23.6-26.5-14.4l-52.7,43.8
		c-0.9,0.6-1.7,0.9-2.6,0.9l-43.5-0.3c-20.2,0-36.6,16.4-36.6,36.6v121.6c0,20.2,16.4,36.6,36.6,36.6h437.1
		c20.2,0,36.6-16.4,36.6-36.6V619.7C548.2,599.5,531.7,583.1,511.6,583.1z"/>
	<path fill="#25D366" d="M511.6,779.9H74.5c-21.3,0-38.6-17.3-38.6-38.6V619.7c0-21.3,17.3-38.6,38.6-38.6l43.5,0.3
		c0.6,0,0.9-0.3,1.2-0.6l52.7-43.8c3.2-2.6,7.2-4,11.2-4c5.8,0,11.2,2.6,14.7,6.9c3.2,3.7,4.6,8.6,3.7,13.5l-4.3,25.4
		c0,0.9,0.3,1.4,0.6,1.7c0.3,0.3,0.6,0.6,1.4,0.6h312.3c21.3,0,38.6,17.3,38.6,38.6v121.6C550.2,762.6,532.9,779.9,511.6,779.9z
		 M74.5,585.4c-19,0-34.3,15.6-34.3,34.6v121.6c0,19,15.6,34.6,34.6,34.6h437.1c19,0,34.6-15.6,34.6-34.6V620
		c0-19-15.6-34.6-34.6-34.6H199.3c-1.7,0-3.5-0.9-4.6-2.3c-1.2-1.4-1.7-3.2-1.4-4.9l4.3-25.4c0.9-4.6-1.2-8.1-2.9-10.4
		c-2.9-3.5-7.2-5.5-11.8-5.5c-3.2,0-6.3,1.2-8.6,3.2L121.5,584c-1.2,0.9-2.6,1.4-4,1.4H74.5z"/>
</g>
<path fill="#25D366" d="M508.4,591.2H186.3l6.3-36.6c1.7-9.2-9.2-15.6-16.4-9.5l-54.7,46.1H78c-15.8,0-28.8,13-28.8,28.8v119.3
	c0,15.8,13,28.8,28.8,28.8h430.4c15.8,0,28.8-13,28.8-28.8V620C537.2,604.2,524.2,591.2,508.4,591.2z"/>
<g>
	<circle fill="#FFFFFF" cx="326.6" cy="263.3" r="248.6"/>
	<path fill="#25D366" d="M326.6,513.7C188.3,513.7,75.9,401.3,75.9,263S188.3,12.4,326.6,12.4S577.3,124.7,577.3,263
		S464.6,513.7,326.6,513.7z M326.6,16.7C190.6,16.7,80,127.3,80,263.3s110.6,246.6,246.6,246.6s246.6-110.6,246.6-246.6
		C572.9,127.3,462.6,16.7,326.6,16.7z"/>
</g>
<circle fill="#25D366" cx="326.6" cy="263.3" r="225.9"/>
<g>
	<path fill="#FFFFFF" d="M333.5,108.6c-81.2,0-146.9,65.7-146.9,146.9c0,27.7,7.8,53.9,21,76.1L180.8,410l81-25.9
		c21.3,11.8,45.5,18.7,71.7,18.7c81.2,0,146.9-65.7,146.9-146.9C480.4,174.3,414.5,108.6,333.5,108.6z M333.5,378.3
		c-25.4,0-48.7-7.5-68.3-20.7l-47.5,15.8l15.6-46.7c-14.4-20.2-23-44.9-23-71.7c0-68,55.3-123.3,123.3-123.3S456.8,187,456.8,255
		S401.8,378.3,333.5,378.3z"/>
	<path fill="#FFFFFF" d="M284.2,189c0,0-6.3,0.3-11.8,6.3c-5.2,6.1-11.2,16.7-10.1,29.1c1.2,12.4,8.9,33.7,27.7,53
		s28.5,28.8,51,37.5c22.5,8.6,34.6,13.3,49.6,4.3c15.6-8.6,16.7-16.4,17.6-26.8c0-5.5-0.6-4.3-5.2-6.9c-4.6-2.6-25.4-12.4-25.4-12.4
		s-6.3-4-9.8,1.2c-3.5,5.2-11.8,14.4-11.8,14.4s-2,2.9-7.5,0.6c-5.5-2.3-30-12.4-47.2-40.9c-2.9-4.9-0.6-8.1-0.6-8.1l9.2-10.9
		c0,0,2.9-2.3,0.3-9.2c-3.5-6.9-11.5-27.1-11.5-27.1s-1.2-4-6.3-4C284.2,189,284.2,189,284.2,189z"/>
</g>
<g>
	<g>
		<path fill="#FFFFFF" d="M140.2,666.1c1.2,2.3,2,4.3,2.3,6.6c-2.3,0.9-4.3,1.7-6.6,2c-2.3,0.3-4.9,0.6-7.5,0.6c-4,0-7.8-0.6-10.9-2
			s-6.1-3.2-8.4-5.8c-2.3-2.6-4-5.5-5.2-9.2c-1.2-3.5-1.7-7.5-1.7-12.1s0.6-8.6,1.7-12.1c1.2-3.7,2.9-6.6,5.2-9.2
			c2.3-2.6,4.9-4.6,8.4-6.1c3.2-1.4,6.9-2,10.9-2c2.9,0,5.5,0.3,7.8,0.6c2,0.3,4,0.9,5.8,1.4c0,1.2-0.3,2.3-0.6,3.5
			c-0.3,1.2-0.9,2-1.2,3.2c-0.9-0.3-1.4-0.6-2.3-0.6c-0.9-0.3-1.4-0.3-2.3-0.6c-0.9-0.3-1.7-0.3-2.9-0.3c-1.2,0-2.3,0-3.5,0
			c-5.8,0-10.1,2-13.3,5.8c-3.2,3.7-4.9,9.5-4.9,16.7c0,3.7,0.6,6.9,1.4,9.8c0.9,2.6,2,4.9,3.7,6.6c1.7,1.7,3.5,3.2,5.8,4
			c2.3,0.9,4.9,1.4,7.8,1.4c2.3,0,4.3-0.3,6.1-0.6C137,667.3,138.5,666.7,140.2,666.1z"/>
		<path fill="#FFFFFF" d="M152,616.5c0.6,0,1.2-0.3,2-0.3c0.6,0,1.4,0,2,0s1.2,0,2,0c0.9,0,1.4,0,2,0.3v23.3
			c0.6-0.9,1.2-1.4,1.7-2.3s1.4-1.7,2.6-2.3c1.2-0.6,2.3-1.2,3.5-1.7c1.4-0.6,2.9-0.6,4.3-0.6c4.6,0,8.1,1.4,10.4,4
			c2.3,2.6,3.5,6.6,3.5,11.8v25.6c-0.6,0-1.2,0.3-2,0.3c-0.6,0-1.4,0-2,0s-1.2,0-2,0c-0.6,0-1.4,0-2-0.3v-23.3
			c0-3.7-0.6-6.3-1.7-8.4c-1.2-1.7-3.2-2.6-5.8-2.6c-1.4,0-2.9,0.3-4,0.9c-1.4,0.6-2.6,1.2-3.5,2.3c-0.9,1.2-1.7,2.6-2.3,4.3
			c-0.6,1.7-0.9,3.7-0.9,6.3v20.7c-0.6,0-1.2,0.3-2,0.3c-0.9,0-1.4,0-2,0c-0.6,0-1.2,0-2,0c-0.9,0-1.4,0-2-0.3v-58.2H152z"/>
		<path fill="#FFFFFF" d="M218.8,647.7c0-3.2-0.9-5.2-2.3-6.3s-3.7-1.7-6.9-1.7c-1.7,0-3.5,0.3-5.2,0.6s-3.2,0.6-4.6,1.2
			c-0.9-1.7-1.4-3.7-1.4-6.3c1.7-0.6,3.7-1.2,5.8-1.4c2-0.3,4.3-0.6,6.3-0.6c5.2,0,9.2,1.2,11.8,3.5c2.6,2.3,4,6.3,4,11.5v25.4
			c-1.7,0.3-4,0.9-6.6,1.4c-2.6,0.6-5.2,0.6-8.1,0.6c-2.6,0-4.9-0.3-6.9-0.6c-2-0.6-3.7-1.2-5.2-2.3c-1.4-1.2-2.6-2.3-3.5-4
			c-0.9-1.7-1.2-3.5-1.2-5.8c0-2.3,0.6-4.3,1.4-6.1c0.9-1.7,2.3-3.2,3.7-4.3s3.5-2,5.5-2.6c2-0.6,4.3-0.9,6.3-0.9c1.7,0,3.2,0,4,0
			c1.2,0,2,0.3,2.6,0.3v-1.4H218.8z M218.8,655.4c-0.9,0-1.7-0.3-2.9-0.3c-1.2,0-2.3-0.3-3.2-0.3c-3.2,0-5.8,0.6-7.5,1.7
			c-1.7,1.2-2.6,3.2-2.6,5.5c0,1.4,0.3,2.9,0.9,3.7c0.6,0.9,1.4,1.4,2.3,2c0.9,0.6,1.7,0.9,2.9,0.9c1.2,0,2,0.3,2.9,0.3
			c1.2,0,2.6,0,3.7-0.3c1.2,0,2.3-0.3,3.5-0.6V655.4z"/>
		<path fill="#FFFFFF" d="M239.6,640.2h-6.1l-0.3-1.2l13.5-15h0.6v10.1h10.1c0.3,0.9,0.3,2,0.3,2.9c0,0.6,0,1.2,0,1.7
			c0,0.6,0,1.2-0.3,1.4h-10.1v18.4c0,2.3,0,4,0.3,5.2c0.3,1.4,0.6,2.3,0.9,3.2c0.6,0.6,1.2,1.2,1.7,1.4c0.9,0.3,1.7,0.3,2.9,0.3
			c0.9,0,1.7,0,2.6-0.3c0.9,0,1.4-0.3,2-0.6c0.3,1.2,0.6,2,0.6,3.2c0,1.2,0,2,0,2.9c-1.2,0.3-2,0.6-3.2,0.6s-2.3,0.3-3.7,0.3
			c-3.7,0-6.6-0.9-8.9-2.9c-2-1.7-3.2-4.9-3.2-9.2v-22.5H239.6z"/>
		<path fill="#FFFFFF" d="M272.1,656c0,4.3,1.2,7.5,3.5,9.8c2.3,2,5.5,3.2,9.5,3.2c3.7,0,7.2-0.6,10.7-2c0.3,0.9,0.9,1.7,1.2,2.9
			c0.3,1.2,0.3,2.3,0.6,3.5c-1.7,0.9-3.7,1.2-5.8,1.7c-2,0.3-4.3,0.6-6.9,0.6c-3.7,0-6.9-0.6-9.5-1.4c-2.6-1.2-4.9-2.6-6.6-4.3
			c-1.7-1.7-2.9-4-3.7-6.6c-0.9-2.6-1.2-5.5-1.2-8.4c0-2.9,0.3-5.8,1.2-8.4c0.9-2.6,2-4.9,3.5-6.6c1.4-2,3.5-3.5,6.1-4.6
			c2.3-1.2,5.2-1.7,8.4-1.7c2.9,0,5.2,0.6,7.2,1.4s3.7,2.3,5.2,4s2.6,3.7,3.2,5.8c0.9,2.3,1.2,4.9,1.2,7.5c0,0.9,0,1.4,0,2.3
			s0,1.4-0.3,2h-27.1V656z M292,650.3c0-1.4-0.3-2.9-0.6-4.3c-0.3-1.4-0.9-2.6-1.7-3.5c-0.9-0.9-1.7-1.7-2.9-2.3
			c-1.2-0.6-2.6-0.9-4.3-0.9c-3.2,0-5.8,0.9-7.5,2.9c-1.7,2-2.9,4.6-3.2,8.1H292z"/>
		<path fill="#FFFFFF" d="M331.2,647.7c0-3.2-0.9-5.2-2.3-6.3s-3.7-1.7-6.9-1.7c-1.7,0-3.5,0.3-5.2,0.6s-3.2,0.6-4.6,1.2
			c-0.9-1.7-1.4-3.7-1.4-6.3c1.7-0.6,3.7-1.2,5.8-1.4c2-0.3,4.3-0.6,6.3-0.6c5.2,0,9.2,1.2,11.8,3.5c2.6,2.3,4,6.3,4,11.5v25.4
			c-1.7,0.3-4,0.9-6.6,1.4c-2.6,0.6-5.2,0.6-8.1,0.6c-2.6,0-4.9-0.3-6.9-0.6c-2-0.6-3.7-1.2-5.2-2.3c-1.4-1.2-2.6-2.3-3.5-4
			c-0.9-1.7-1.2-3.5-1.2-5.8c0-2.3,0.6-4.3,1.4-6.1s2.3-3.2,3.7-4.3s3.5-2,5.5-2.6c2-0.6,4.3-0.9,6.3-0.9c1.7,0,3.2,0,4,0
			c1.2,0,2,0.3,2.6,0.3v-1.4H331.2z M331.2,655.4c-0.9,0-1.7-0.3-2.9-0.3c-1.2,0-2.3-0.3-3.2-0.3c-3.2,0-5.8,0.6-7.5,1.7
			c-1.7,1.2-2.6,3.2-2.6,5.5c0,1.4,0.3,2.9,0.9,3.7s1.4,1.4,2.3,2c0.9,0.6,1.7,0.9,2.9,0.9c1.2,0,2,0.3,2.9,0.3c1.2,0,2.6,0,3.7-0.3
			c1.2,0,2.3-0.3,3.5-0.6V655.4L331.2,655.4z"/>
		<path fill="#FFFFFF" d="M396,667.3c0.3,0.9,0.9,1.7,1.2,2.9c0.3,1.2,0.6,2.3,0.6,3.5c-3.2,1.2-6.6,1.7-10.7,1.7
			c-6.6,0-11.8-2-15.3-5.8c-3.5-3.7-5.2-8.9-5.2-15.3c0-2.9,0.3-5.8,1.2-8.4c0.9-2.6,2-4.9,3.7-6.6c1.7-2,3.7-3.5,6.1-4.6
			c2.6-1.2,5.2-1.7,8.6-1.7c2.3,0,4,0,5.8,0.3c1.7,0.3,3.2,0.6,4.9,1.2c0,0.9,0,2-0.3,3.2c-0.3,1.2-0.6,2.3-0.9,3.2
			c-2.6-0.9-5.5-1.4-8.9-1.4c-4,0-6.9,1.4-8.9,4c-2,2.6-2.9,6.3-2.9,10.7c0,4.9,1.2,8.6,3.5,10.9c2.3,2.3,5.5,3.5,9.2,3.5
			c1.4,0,3.2,0,4.3-0.3C393.4,668.1,394.9,667.8,396,667.3z"/>
		<path fill="#FFFFFF" d="M422,675.3c-3.2,0-5.8-0.6-8.4-1.7c-2.3-1.2-4.3-2.6-5.8-4.3c-1.4-2-2.9-4-3.5-6.6
			c-0.9-2.6-1.2-5.5-1.2-8.4s0.3-5.8,1.2-8.4c0.9-2.6,2-4.9,3.5-6.6c1.4-2,3.5-3.5,5.8-4.6c2.3-1.2,5.2-1.7,8.4-1.7
			c3.2,0,5.8,0.6,8.4,1.7c2.3,1.2,4.3,2.6,5.8,4.6c1.4,2,2.9,4,3.5,6.6c0.9,2.6,1.2,5.5,1.2,8.4s-0.3,5.8-1.2,8.4
			c-0.9,2.6-2,4.9-3.5,6.6c-1.4,2-3.5,3.5-5.8,4.3C428,674.7,425.1,675.3,422,675.3z M422,669c3.7,0,6.3-1.4,8.1-4
			c1.7-2.6,2.6-6.3,2.6-10.9c0-4.6-0.9-8.4-2.6-10.9c-1.7-2.6-4.3-4-8.1-4s-6.3,1.4-8.1,4c-1.7,2.6-2.6,6.3-2.6,10.9
			c0,4.6,0.9,8.4,2.6,10.9C415.6,667.5,418.5,669,422,669z"/>
		<path fill="#FFFFFF" d="M451.1,633.8c0.6,0,1.2-0.3,1.7-0.3c0.6,0,1.2,0,1.7,0c0.6,0,1.2,0,1.7,0c0.6,0,1.2,0,1.7,0.3
			c0.3,0.9,0.3,1.7,0.6,3.2c0.3,1.4,0.3,2.6,0.3,3.5c0.6-0.9,1.2-1.7,2-2.6c0.9-0.9,1.7-1.7,2.9-2.3c1.2-0.6,2.3-1.2,3.7-1.7
			s2.9-0.6,4.6-0.6c4.6,0,8.1,1.4,10.1,4c2.3,2.6,3.2,6.6,3.2,11.8v25.6c-0.6,0-1.2,0.3-2,0.3c-0.9,0-1.4,0-2,0c-0.6,0-1.2,0-2,0
			c-0.6,0-1.4,0-2-0.3v-23.3c0-3.7-0.6-6.3-1.7-8.4c-1.2-1.7-2.9-2.6-5.5-2.6c-1.4,0-2.9,0.3-4,0.9c-1.4,0.6-2.6,1.4-3.5,2.3
			c-0.9,1.2-1.7,2.6-2.3,4.3c-0.6,1.7-0.9,3.7-0.9,6.3v20.5c-0.6,0-1.2,0.3-2,0.3c-0.6,0-1.4,0-2,0s-1.2,0-2,0c-0.9,0-1.4,0-2-0.3
			v-40.9H451.1z"/>
		<path fill="#FFFFFF" d="M104.2,691.7c0.6,0,1.2-0.3,1.7-0.3c0.6,0,1.2,0,1.7,0c0.6,0,1.2,0,1.7,0c0.6,0,1.2,0,1.7,0.3l24.5,42.4
			v-42.4c0.6,0,1.2-0.3,2-0.3c0.6,0,1.4,0,2,0c0.6,0,1.2,0,1.7,0c0.6,0,1.2,0,1.7,0.3v56.5c-0.6,0-1.2,0.3-1.7,0.3s-1.2,0-1.7,0
			s-1.2,0-1.7,0c-0.6,0-1.2,0-1.7-0.3l-24.8-42.4v42.4c-0.6,0-1.2,0.3-1.7,0.3c-0.6,0-1.4,0-2,0s-1.4,0-2,0c-0.6,0-1.2,0-1.7-0.3
			v-56.5H104.2z"/>
		<path fill="#FFFFFF" d="M173.3,749.1c-3.2,0-5.8-0.6-8.4-1.7c-2.3-1.2-4.3-2.6-5.8-4.3c-1.4-2-2.9-4-3.5-6.6
			c-0.9-2.6-1.2-5.5-1.2-8.4s0.3-5.8,1.2-8.4c0.9-2.6,2-4.9,3.5-6.6c1.4-2,3.5-3.5,5.8-4.6s5.2-1.7,8.4-1.7c3.2,0,5.8,0.6,8.4,1.7
			c2.3,1.2,4.3,2.6,5.8,4.6c1.4,2,2.9,4,3.5,6.6c0.9,2.6,1.2,5.5,1.2,8.4s-0.3,5.8-1.2,8.4c-0.9,2.6-2,4.9-3.5,6.6
			c-1.4,2-3.5,3.5-5.8,4.3C179.1,748.8,176.5,749.1,173.3,749.1z M173.3,743c3.7,0,6.3-1.4,8.1-4c1.7-2.6,2.6-6.3,2.6-10.9
			c0-4.6-0.9-8.4-2.6-10.9c-1.7-2.6-4.3-4-8.1-4s-6.3,1.4-8.1,4c-1.7,2.6-2.6,6.3-2.6,10.9c0,4.6,0.9,8.4,2.6,10.9
			C167,741.6,169.6,743,173.3,743z"/>
		<path fill="#FFFFFF" d="M201.6,741c1.4,0.6,2.9,1.2,4.6,1.4c1.7,0.3,3.5,0.6,5.2,0.6c1.2,0,2.3,0,3.5-0.3c1.2-0.3,2-0.6,2.9-1.2
			c0.9-0.6,1.4-1.2,2-2c0.6-0.9,0.9-1.7,0.9-2.6c0-1.2-0.3-2-0.6-2.6c-0.3-0.6-0.9-1.2-1.4-1.7s-1.4-0.9-2.3-1.2
			c-0.9-0.3-1.7-0.6-2.9-0.9l-2.9-1.2c-3.5-1.2-5.8-2.6-7.2-4.3c-1.4-1.4-2.3-3.7-2.3-6.3c0-3.5,1.2-6.3,3.7-8.4
			c2.6-2,6.3-3.2,11.2-3.2c2,0,4,0.3,6.1,0.6c2,0.3,3.7,0.9,5.2,1.4c0,1.2-0.3,2-0.6,3.2c-0.3,1.2-0.6,2-1.2,2.9
			c-1.2-0.3-2.6-0.9-4-1.2c-1.7-0.3-3.5-0.6-5.2-0.6c-2,0-3.7,0.3-5.2,1.2c-1.4,0.6-2.3,2-2.3,3.7c0,0.9,0.3,1.7,0.6,2.3
			c0.3,0.6,0.9,1.2,1.4,1.7s1.4,0.9,2.3,1.2c0.9,0.3,1.7,0.6,2.6,0.9l3.5,1.2c1.2,0.3,2.6,0.9,3.5,1.4c1.2,0.6,2,1.4,2.9,2.3
			c0.9,0.9,1.4,2,2,3.2c0.6,1.2,0.9,2.6,0.9,4.3c0,2-0.3,3.7-1.2,5.2c-0.9,1.7-2,2.9-3.5,4s-3.2,2-5.2,2.6c-2,0.6-4.3,0.9-6.6,0.9
			c-2.6,0-4.6-0.3-6.6-0.6c-2-0.3-3.7-0.9-5.2-1.4c0-1.2,0.3-2,0.6-3.2C200.7,743,201.3,741.9,201.6,741z"/>
		<path fill="#FFFFFF" d="M254.3,749.1c-3.2,0-5.8-0.6-8.4-1.7c-2.3-1.2-4.3-2.6-5.8-4.3c-1.4-2-2.9-4-3.5-6.6
			c-0.9-2.6-1.2-5.5-1.2-8.4s0.3-5.8,1.2-8.4c0.9-2.6,2-4.9,3.5-6.6c1.4-2,3.5-3.5,5.8-4.6c2.3-1.2,5.2-1.7,8.4-1.7
			c3.2,0,5.8,0.6,8.4,1.7c2.3,1.2,4.3,2.6,5.8,4.6c1.4,2,2.9,4,3.5,6.6c0.9,2.6,1.2,5.5,1.2,8.4s-0.3,5.8-1.2,8.4
			c-0.9,2.6-2,4.9-3.5,6.6c-1.4,2-3.5,3.5-5.8,4.3C260.3,748.8,257.5,749.1,254.3,749.1z M254.3,743c3.7,0,6.3-1.4,8.1-4
			c1.7-2.6,2.6-6.3,2.6-10.9c0-4.6-0.9-8.4-2.6-10.9c-1.7-2.6-4.3-4-8.1-4s-6.3,1.4-8.1,4c-1.7,2.6-2.6,6.3-2.6,10.9
			c0,4.6,0.9,8.4,2.6,10.9C247.9,741.6,250.8,743,254.3,743z"/>
		<path fill="#FFFFFF" d="M284.8,714.2h-6.1l-0.3-1.2l13.5-15h0.6v10.1h10.1c0.3,0.9,0.3,2,0.3,2.9c0,0.6,0,1.2,0,1.7
			c0,0.6,0,1.2-0.3,1.4h-10.1v18.4c0,2.3,0,4,0.3,5.2c0.3,1.4,0.6,2.3,0.9,3.2c0.6,0.6,1.2,1.2,1.7,1.4c0.9,0.3,1.7,0.3,2.9,0.3
			c0.9,0,1.7,0,2.6-0.3c0.9,0,1.4-0.3,2-0.6c0.3,1.2,0.6,2,0.6,3.2s0,2,0,2.9c-1.2,0.3-2,0.6-3.2,0.6c-1.2,0-2.3,0.3-3.7,0.3
			c-3.7,0-6.6-0.9-8.9-2.9c-2-1.7-3.2-4.9-3.2-9.2v-22.5H284.8z"/>
		<path fill="#FFFFFF" d="M311.6,707.9c0.6,0,1.2-0.3,1.7-0.3s1.2,0,1.7,0s1.2,0,1.7,0s1.2,0,1.4,0.3c0.3,0.9,0.3,1.7,0.6,3.2
			c0.3,1.2,0.3,2.3,0.3,3.2c1.2-1.7,2.6-3.5,4.3-4.6c1.7-1.4,4-2,6.9-2c0.3,0,0.9,0,1.4,0s0.9,0,1.2,0c0,0.6,0.3,0.9,0.3,1.4
			c0,0.6,0,1.2,0,1.7c0,0.6,0,1.2,0,2c0,0.6-0.3,1.4-0.3,2c-0.3,0-0.9-0.3-1.4-0.3s-0.9,0-1.2,0c-1.4,0-2.9,0.3-4,0.6
			c-1.2,0.3-2.3,1.2-3.5,2c-1.2,0.9-1.7,2.3-2.3,4s-0.9,4-0.9,6.6v20.2c-0.6,0-1.2,0.3-2,0.3c-0.6,0-1.4,0-2,0s-1.2,0-2,0
			c-0.6,0-1.4,0-2-0.3V707.9z"/>
		<path fill="#FFFFFF" d="M356,749.1c-3.2,0-5.8-0.6-8.4-1.7c-2.3-1.2-4.3-2.6-5.8-4.3c-1.4-2-2.9-4-3.5-6.6
			c-0.9-2.6-1.2-5.5-1.2-8.4s0.3-5.8,1.2-8.4c0.9-2.6,2-4.9,3.5-6.6c1.4-2,3.5-3.5,5.8-4.6c2.3-1.2,5.2-1.7,8.4-1.7
			c3.2,0,5.8,0.6,8.4,1.7c2.3,1.2,4.3,2.6,5.8,4.6c1.4,2,2.9,4,3.5,6.6c0.9,2.6,1.2,5.5,1.2,8.4s-0.3,5.8-1.2,8.4
			c-0.9,2.6-2,4.9-3.5,6.6c-1.4,2-3.5,3.5-5.8,4.3C361.7,748.8,359.2,749.1,356,749.1z M356,743c3.7,0,6.3-1.4,8.1-4
			c1.7-2.6,2.6-6.3,2.6-10.9c0-4.6-0.9-8.4-2.6-10.9s-4.3-4-8.1-4c-3.7,0-6.3,1.4-8.1,4c-1.7,2.6-2.6,6.3-2.6,10.9
			c0,4.6,0.9,8.4,2.6,10.9C349.6,741.6,352.2,743,356,743z"/>
		<path fill="#FFFFFF" d="M384.2,741c1.4,0.6,2.9,1.2,4.6,1.4c1.7,0.3,3.5,0.6,5.2,0.6c1.2,0,2.3,0,3.5-0.3c1.2-0.3,2-0.6,2.9-1.2
			c0.9-0.6,1.4-1.2,2-2c0.6-0.9,0.9-1.7,0.9-2.6c0-1.2-0.3-2-0.6-2.6c-0.3-0.6-0.9-1.2-1.4-1.7s-1.4-0.9-2.3-1.2s-1.7-0.6-2.9-0.9
			l-2.9-1.2c-3.5-1.2-5.8-2.6-7.2-4.3c-1.4-1.4-2.3-3.7-2.3-6.3c0-3.5,1.2-6.3,3.7-8.4c2.6-2,6.3-3.2,11.2-3.2c2,0,4,0.3,6.1,0.6
			s3.7,0.9,5.2,1.4c0,1.2-0.3,2-0.6,3.2c-0.3,1.2-0.6,2-1.2,2.9c-1.2-0.3-2.6-0.9-4-1.2c-1.7-0.3-3.5-0.6-5.2-0.6
			c-2,0-3.7,0.3-5.2,1.2c-1.4,0.6-2.3,2-2.3,3.7c0,0.9,0.3,1.7,0.6,2.3c0.3,0.6,0.9,1.2,1.4,1.7s1.4,0.9,2.3,1.2
			c0.9,0.3,1.7,0.6,2.6,0.9l3.5,1.2c1.2,0.3,2.6,0.9,3.5,1.4c1.2,0.6,2,1.4,2.9,2.3c0.9,0.9,1.4,2,2,3.2c0.6,1.2,0.9,2.6,0.9,4.3
			c0,2-0.3,3.7-1.2,5.2c-0.9,1.7-2,2.9-3.5,4s-3.2,2-5.2,2.6c-2,0.6-4.3,0.9-6.6,0.9c-2.6,0-4.6-0.3-6.6-0.6c-2-0.3-3.7-0.9-5.2-1.4
			c0-1.2,0.3-2,0.6-3.2C383.4,743,383.9,741.9,384.2,741z"/>
	</g>
</g>
</svg>
