<?xml version="1.0" encoding="utf-8"?>
<!-- Generator: Adobe Illustrator 18.1.1, SVG Export Plug-In . SVG Version: 6.00 Build 0)  -->
<svg version="1.1" id="Capa_1" xmlns="http://www.w3.org/2000/svg" xmlns:xlink="http://www.w3.org/1999/xlink" x="0px" y="0px"
	 viewBox="0 0 262.3 159.9" enable-background="new 0 0 262.3 159.9" xml:space="preserve">
<rect x="0" y="0" fill="none" width="262.3" height="159.9"/>
<g>
	<path fill="#E1A2C2" d="M98,55.4c34.8-5.2,68-1.4,100.4,12.1c0.3-0.9,0.7-1.8,0.9-2.8c2.9-11.4,6.6-22.5,12.2-33
		c1.1-2.1,2.5-4.2,4-6.1c0.6-0.7,2-1.4,2.8-1.2c1.6,0.5,2.4,2,1.7,3.7c-0.9,2.1-2,4.1-3,6.1c-0.5,1-1,1.9-1.5,2.8
		c2.6-1.2,5.1-3.1,7.8-3.3c3.4-0.2,4.3,3.1,5,6.1c3.4-0.9,6.7-1.7,9.9-2.6c0.5-0.1,1-0.6,1.3-1c3.4-3.9,6.8-4.1,10.4-0.4
		c0.3,0.3,0.6,0.6,1.1,1c0.8-0.6,1.5-1.4,2.3-1.8c0.5-0.3,1.4-0.4,1.8-0.1c0.4,0.3,0.6,1.2,0.4,1.7c-0.7,1.8-1.6,3.5-2.3,5.3
		c-1.6,4-3.2,8.1-4.7,12.1c-0.3,0.8,0.3,1.8,0.5,2.8c0.8-0.5,2-0.7,2.5-1.4c2.4-3.6,4.7-7.4,7-11.1c0.5-0.9,1.1-1.7,1.7-2.6
		c0.2,0.1,0.5,0.2,0.7,0.3c-0.1,0.6-0.2,1.3-0.5,1.9c-2.1,3.9-4.3,7.8-6.5,11.6c-0.4,0.7-1,1.6-1.7,1.8c-1.4,0.4-3.1,0.9-4.2,0.4
		c-1-0.4-2.1-2.3-2-3.3c0.6-3.8,1.6-7.5,2.5-11.2c0.2-0.9,0.8-1.6,0.7-2.8c-1.1,1.3-2.2,2.7-3.4,4c-1.1,1.2-2,2.6-3.3,3.4
		c-1.1,0.7-3.1,1.2-4,0.6c-1.1-0.6-2-2.4-2-3.8c-0.1-1.8,0.7-3.7,1.3-6c-3.3,1.2-6.5,2.2-9.5,3.4c-0.7,0.3-1.1,1.2-1.6,1.9
		c-2,3.1-4.9,5.1-8.4,5.9c-0.9,0.2-1.9,0.4-2.7,0.1c-1.2-0.5-2.2-1.4-3.2-2.1c0.7-0.9,1.3-2.2,2.2-2.7c2.3-1.2,4.7-2.1,7.1-3.1
		c0.8-0.3,1.9-0.5,2.2-1c0.6-1.3,0.8-2.9,1.2-4.3c-1.2,0-2.7-0.4-3.6,0.1c-5.3,3.1-9.4,7.5-11.8,13c-2.7,5.9-4.5,12.1-6.9,18.1
		c-0.7,1.7,0.4,2,1.5,2.5c12.3,6.1,23.8,13.5,34.1,22.7c1.6,1.4,3.2,3,4.8,4.5c0.2,0.2,0.4,0.5,0.5,0.9
		c-12.6-11.1-26.4-20.2-42.1-26.8c-0.6,1.6-1.1,3-1.8,4.4c-0.3,0.5-1.2,1.1-1.6,0.9c-0.5-0.1-0.9-1-1.2-1.6c-0.2-0.4,0-1,0.1-1.5
		c0.7-3.8,0.8-3.9-3-5.2c-30.2-10.6-61-14.4-92.7-8.3c-5.6,1.1-4.5,0.4-5.5,5.5c-4.1,20.3-10.1,39.9-21,57.7
		c-7.9,13-17.9,23.7-32,30.2c-7,3.2-14.1,5-22,4.1c-7.4-0.9-12.1-4.8-15.4-11.1c-3.5-6.6-3.2-13.6-2.1-20.7
		c2.1-13.2,9.9-22.9,19.4-31.6c16-14.6,34.5-25,54.7-32.5c5-1.8,10-3.3,15-5.1c0.9-0.3,2.1-1.2,2.2-2c1.1-6.3,2-12.6,2.9-18.8
		c-0.2-0.1-0.4-0.1-0.6-0.2c-0.4,0.8-0.8,1.5-1.2,2.3c-6.8,13-16.9,22-31,26.3c-7.5,2.3-14.3,0.2-19-6.1c-4-5.3-5.4-11.3-5-18
		c1.2-17.2,11-28.3,25.3-35.9c11.5-6.2,23.5-2.9,31.4,7.8c0.6,0.9,1.2,1.8,1.6,2.8c-1.6-1.7-3.1-3.6-4.8-5.2
		c-7.8-7.7-17.7-9.4-27.2-4.1c-11,6.1-19.5,14.7-23.5,26.9c-2.6,8.1-2,16,3.7,22.8c4.4,5.4,10.1,7,16.7,4.8
		C81.6,54.5,91.9,41.9,97.8,25c0.4-1.2,1.3-2.3,2-3.5c0.4,1.4,1.1,2.7,1,4.1c-0.7,8.7-1.6,17.4-2.4,26.1C98.3,52.8,98.2,54,98,55.4z
		 M93.5,62.6c-1.4,0.4-2.2,0.6-3,0.9c-7.6,3.2-15.3,6-22.7,9.6C50.2,81.6,34,92.2,20.4,106.4c-6.6,6.8-12.2,14.3-14,24
		c-1.6,8.6,1.4,13.9,9.8,16.7c1.2,0.4,2.4,0.7,3.7,0.9c7.9,1.6,15.2-0.8,22.3-3.8c14.2-6,24.2-16.7,32.1-29.5
		c8.5-13.7,13.7-28.7,17.6-44.3C92.3,68,92.8,65.6,93.5,62.6z M240.2,47.9c2.8-3.1,5.3-5.7,7.6-8.5c0.4-0.5,0-1.7-0.3-2.6
		c-0.1-0.2-1.1-0.3-1.5-0.1C243.3,37.8,239.7,44,240.2,47.9z M221.4,43.7c-2.4,1.2-4.8,2.4-7.3,3.6
		C217.1,48.2,219.8,46.8,221.4,43.7z"/>
	<path fill="#E1A2C2" d="M140.7,41.7c-1.2,2.7-2.1,4.9-3.1,7c-1,2.2-2.6,3.6-5.2,2.9c-2.4-0.6-2.7-2.7-2.5-4.6
		c0.3-3.6,0.8-7.1,1.3-10.9c-0.9,1.3-1.7,2.5-2.5,3.8c-0.8,1.1-1.5,2.3-2.3,3.3c-2.2,2.6-4.6,2-6.4-1.6c-1.1,2-2.1,3.9-3.3,5.7
		c-1.5,2.3-3.1,5.1-6.3,4.5c-3.4-0.6-4-3.9-4.5-6.6c-1.9-11.5,1.1-22,7-31.7c1.5-2.4,3.2-4.8,5.2-6.8c0.9-0.9,3.2-1.7,4.1-1.1
		c1.1,0.7,2.1,2.7,2,4.1c-0.1,2.4-0.8,4.8-1.7,7c-2.7,6.2-6.1,12-11.5,16.3c-0.6,0.5-1.4,1.3-1.5,2c-0.3,4.4-0.6,8.8-0.6,13.2
		c0,1,0.9,2,1.8,3.9c2.2-2.7,4.3-4.5,5.6-6.8c1.9-3.3,3.5-6.9,4.9-10.4c1.9-5,5.8-7,11.1-2.7c0.2-0.1,0.5-0.1,0.7-0.3
		c1.1-0.6,2.1-1.2,3.2-1.8c0,1.3,0.1,2.6-0.2,3.8c-1,3.5-2.4,7-3.2,10.6c-0.4,1.9-0.1,4.1-0.1,6.1c0.3,0.1,0.6,0.2,0.8,0.4
		c0.8-1,2-1.9,2.5-3c2-4.8,3.8-9.6,5.7-14.5c0.5-1.4,1-2.8,1.6-4.2c0.5-1.3,1.5-2.1,3-1.4c1.5,0.7,3,1.5,2.3,3.6
		c-0.8,2.4-1.9,4.7-2.7,7c-0.6,1.7-1.1,3.5-1.6,5.2c0.2,0.1,0.5,0.2,0.7,0.3c0.2-0.7,0.4-1.4,0.7-2c1.5-3.5,3-7.1,4.7-10.5
		c0.5-1.1,1.4-2.2,2.4-2.8c1.3-0.7,3.2-1.6,4.2-1.1c1.2,0.6,2.2,2.4,2.7,3.8c0.4,1.2-0.1,2.7-0.3,4.6c1.4-2.2,2.5-4.2,3.9-6
		c1.4-1.8,3-3.6,4.7-5.2c1.6-1.5,3.6-2.3,5.8-1c2.1,1.3,3,3.4,2.5,5.6c-0.7,3.2-1.7,6.3-2.7,9.4c-1.4,4.2-3.1,8.3-4.3,12.6
		c-0.4,1.4,0.1,3,0.3,4.5c1.2-0.9,2.9-1.5,3.6-2.6c2.2-3.6,4-7.4,5.9-11.1c0.6-1.1,1.1-2.2,1.6-3.3c0.2,0,0.5,0,0.7,0.1
		c0.1,0.7,0.4,1.5,0.2,2c-2.3,4.6-4.6,9.1-7,13.6c-0.2,0.4-0.5,0.7-0.9,0.9c-1.4,1.2-3.1,2.7-4.9,1.5c-1.3-0.9-2.6-2.8-2.7-4.4
		c-0.2-3.2,0-6.6,0.7-9.7c1.2-4.8,3-9.4,4.5-14.1c0.3-1,0-2.3,0-3.4c-1.2,0.5-2.8,0.6-3.4,1.5c-3.1,4.4-6,9-9,13.6
		c-0.4,0.6-0.4,1.3-0.8,1.8c-0.7,0.8-1.5,1.4-2.3,2.1c-0.6-0.9-1.7-1.8-1.7-2.8c0-2.7,0.3-5.3,0.6-8c0.1-1.2,0.5-2.4,0.9-4.2
		c-3.2,2.2-5,4.8-6.2,7.7c-1.1,2.7-1.8,5.6-2.9,8.3c-0.4,0.9-1.3,1.7-2,2.5c-0.9-0.8-2.1-1.5-2.8-2.5C141,44.4,141,43.3,140.7,41.7z
		 M122,8.5c-4.8,6.7-8.5,13.9-11,21.8C117,24.1,121.7,17.4,122,8.5z M124.2,43.5c2.1-3.1,4-5.7,5.7-8.5c0.3-0.5-0.2-1.6-0.5-2.3
		c-0.1-0.2-0.9-0.3-1.3-0.1C125.7,33.7,123.1,40.3,124.2,43.5z"/>
	<path fill="#E1A2C2" d="M211.4,9.6c-1.5,0.2-2.5,0.1-3.4,0.4c-4,1.1-7.2,3.5-9.7,6.9c-1.7,2.4-2.8,5.1-1.9,8.1
		c1.2,3.8,2.7,7.5,4.1,11.5c3.3-2,6.2-3.7,9.1-5.4c0.2,0.3,0.4,0.6,0.6,0.9c-2.1,1.4-4.1,3-6.3,4.3c-2,1.1-2.8,2.3-2.5,4.8
		c1.3,10.4-11,15.7-17.6,13.6c-3-1-3.9-3.6-1.5-5.8c2.6-2.4,5.7-4.4,8.6-6.6c0.7-0.5,1.6-1,2.4-1.4c4.8-2.8,4.8-2.8,2.6-8.1
		c-1.3-3.2-2.6-6.4-3.6-9.6c-0.9-2.9-0.2-5.7,1.4-8.2c2.9-4.5,7-7.4,12.3-8.5c2.5-0.5,4.9-0.2,6.6,2c1.6,2,1.3,4.4,0,6.4
		c-1.7,2.8-3.8,5.3-5.8,7.8c-0.4,0.5-1.6,0.3-2.4,0.5c0.2-0.8,0.2-1.7,0.7-2.2C207.9,17.7,210.1,14.3,211.4,9.6z M197.7,39.9
		c-3.9,2.5-7.4,4.6-10.8,6.9c-1.3,0.9-2.5,2-3.5,3.3c-0.5,0.6-0.8,1.9-0.5,2.5c0.3,0.5,1.5,0.8,2.3,0.7
		C192,52.6,197.2,47.4,197.7,39.9z"/>
</g>
</svg>
