<?xml version="1.0" encoding="utf-8"?>
<!-- Generator: Adobe Illustrator 18.1.1, SVG Export Plug-In . SVG Version: 6.00 Build 0)  -->
<svg version="1.1" baseProfile="tiny" id="Capa_1" xmlns="http://www.w3.org/2000/svg" xmlns:xlink="http://www.w3.org/1999/xlink"
	 x="0px" y="0px" viewBox="0 0 396 612" xml:space="preserve">
<rect x="0" y="108" fill="none" width="396" height="396"/>
<g>
	<path fill="#FFFFFF" d="M297.5,368.3c-13-12.1-28.8-12.1-40.9,0c-9.3,9.3-19.5,18.6-28.8,28.8c-2.8,2.8-4.6,2.8-7.4,1.9
		c-6.5-3.7-13-6.5-18.6-10.2c-27.9-17.7-51.1-40-71.6-65.1c-10.2-13-19.5-26-26-40.9c-0.9-2.8-0.9-4.6,1.9-7.4
		c9.3-9.3,18.6-18.6,27.9-27.9c13-13,13-28.8,0-41.8c-7.4-8.4-14.9-15.8-22.3-23.2c-7.4-7.4-15.8-15.8-23.2-23.2
		c-13-12.1-28.8-12.1-40.9,0c-10.2,9.3-19.5,19.5-28.8,28.8c-9.3,8.4-13.9,18.6-14.9,31.6c0,2.8,0,4.6,0,7.4l0,0
		c0,17.7,4.6,33.5,10.2,50.2c13.9,38.1,35.3,71.6,62.3,103.2c35.3,41.8,77.2,75.3,126.4,99.5c22.3,11.2,45.5,19.5,70.6,20.5
		c17.7,0.9,32.5-3.7,44.6-16.7c8.4-9.3,17.7-17.7,26-26c13-13,13-28.8,0-41.8C328.1,399,313.3,384.1,297.5,368.3z"/>
	<path fill="#FFFFFF" d="M281.7,304.1l29.7-4.6c-4.6-27-17.7-52.1-37.2-71.6c-20.5-20.5-46.5-33.5-75.3-38.1l-3.7,29.7
		c22.3,2.8,42.8,13,58.6,28.8C268.6,264.2,278.9,282.8,281.7,304.1L281.7,304.1z"/>
	<path fill="#FFFFFF" d="M328.1,174.9c-34.4-34.4-78.1-55.8-125.5-62.3l-4.6,29.7c40.9,5.6,79,24.2,108.8,53.9
		c27.9,27.9,46.5,63.2,53,102.3l30.7-4.6C382.1,249.3,360.7,207.5,328.1,174.9L328.1,174.9z"/>
</g>
</svg>
