<?xml version="1.0" encoding="utf-8"?>
<!-- Generator: Adobe Illustrator 18.1.1, SVG Export Plug-In . SVG Version: 6.00 Build 0)  -->
<svg version="1.1" baseProfile="tiny" id="Capa_1" xmlns="http://www.w3.org/2000/svg" xmlns:xlink="http://www.w3.org/1999/xlink"
	 x="0px" y="0px" viewBox="0 0 396 612" xml:space="preserve">
<g>
	<path fill="#FFFFFF" d="M200.8,109.9c-105,0-191.5,85.5-191.5,191.5c0,36.3,10.2,69.7,27.9,99.5L1.9,503.1l105-33.5
		c27.9,15.8,59.5,24.2,93.9,24.2c106,0,191.5-85.5,191.5-191.5S306.8,109.9,200.8,109.9z M201.7,462.2c-32.5,0-63.2-10.2-89.2-27
		l-62.3,20.5l20.5-61.4c-18.6-26-29.7-58.6-29.7-93.9c0-89.2,71.6-160.8,160.8-160.8s160.8,72.5,160.8,161.7S290,462.2,201.7,462.2z
		"/>
	<path fill="#FFFFFF" d="M136.6,214.9c0,0-8.4,0-14.9,8.4c-6.5,8.4-14.9,21.4-13,38.1c1.9,16.7,11.2,43.7,36.3,68.8
		c25.1,25.1,37.2,38.1,66,49.3c29.7,11.2,44.6,17.7,65.1,5.6c20.5-11.2,21.4-21.4,23.2-34.4c0-7.4-0.9-5.6-6.5-9.3
		c-6.5-3.7-33.5-15.8-33.5-15.8s-8.4-5.6-13,1.9c-4.6,6.5-14.9,18.6-14.9,18.6s-2.8,3.7-10.2,0.9s-39-15.8-61.4-53
		c-3.7-6.5-0.9-10.2-0.9-10.2l12.1-13.9c0,0,3.7-2.8,0-12.1c-4.6-10.2-14.9-36.3-14.9-36.3s-1.9-4.6-8.4-4.6
		C136.6,214.9,136.6,214.9,136.6,214.9z"/>
</g>
<rect x="0" y="108" fill="none" width="396" height="396"/>
</svg>
