<?xml version="1.0" encoding="utf-8"?>
<!-- Generator: Adobe Illustrator 18.1.1, SVG Export Plug-In . SVG Version: 6.00 Build 0)  -->
<svg version="1.1" baseProfile="tiny" id="Capa_1" xmlns="http://www.w3.org/2000/svg" xmlns:xlink="http://www.w3.org/1999/xlink"
	 x="0px" y="0px" viewBox="0 0 200 200" xml:space="preserve">
<rect fill="none" width="200" height="200"/>
<g>
	<path fill="white" d="M100.5,14.6c47,0,85.2,38.2,85.2,85.2s-38.2,85.2-85.2,85.2s-85.2-38.2-85.2-85.2S53.5,14.6,100.5,14.6
		 M100.5,2.4C46.7,2.4,3,46,3,99.8s43.6,97.4,97.4,97.4s97.4-43.6,97.4-97.4S154.3,2.4,100.5,2.4L100.5,2.4z M154.8,132.4l-0.5-1.7
		c-1.3-3.8-5.5-7.8-9.4-8.9l-14.4-3.9c-3.9-1.1-9.5,0.4-12.3,3.2l-5.2,5.2c-18.9-5.1-33.8-20-38.9-38.9l5.2-5.2
		c2.9-2.9,4.3-8.4,3.2-12.3l-3.9-14.4c-1.1-3.9-5.1-8.1-8.9-9.4l-1.6-0.5c-3.8-1.3-9.3,0-12.2,2.9L48,56.2c-1.4,1.4-2.3,5.3-2.3,5.4
		c-0.3,24.8,9.4,48.6,26.9,66.1c17.5,17.5,41.2,27.2,65.9,26.9c0.1,0,4.2-0.9,5.6-2.3l7.8-7.8C154.8,141.7,156.1,136.2,154.8,132.4z
		"/>
</g>
</svg>
